<?xml version="1.0" encoding="UTF-8"?>
<!DOCTYPE svg PUBLIC "-//W3C//DTD SVG 1.1//EN" "http://www.w3.org/Graphics/SVG/1.1/DTD/svg11.dtd">
<!-- Creator: CorelDRAW X8 -->
<svg xmlns="http://www.w3.org/2000/svg" xml:space="preserve" width="2.52374in" height="0.454591in" version="1.1" style="shape-rendering:geometricPrecision; text-rendering:geometricPrecision; image-rendering:optimizeQuality; fill-rule:evenodd; clip-rule:evenodd"
viewBox="0 0 521 94"
 xmlns:xlink="http://www.w3.org/1999/xlink">
 <defs>
  <style type="text/css">
   <![CDATA[
    .fil1 {fill:black}
    .fil3 {fill:#00AFEF}
    .fil2 {fill:#0BB7C4}
    .fil6 {fill:#2A569F}
    .fil4 {fill:#3E4095}
    .fil5 {fill:#90E0EF}
    .fil0 {fill:black;fill-rule:nonzero}
   ]]>
  </style>
 </defs>
 <g id="Layer_x0020_1">
  <metadata id="CorelCorpID_0Corel-Layer"/>
  <g id="_2129450485136">
   <g>
    <polygon class="fil0" points="263,13 247,66 236,66 226,34 216,66 205,66 188,13 201,13 210,46 220,13 231,13 241,46 250,13 "/>
    <path class="fil0" d="M349 51c0,2 0,4 -1,6 -1,2 -3,4 -5,5 -2,1 -4,2 -6,3 -2,1 -5,1 -7,1 -4,0 -7,-1 -10,-2 -4,-2 -6,-4 -9,-7l8 -8c1,2 3,4 5,5 2,1 4,2 6,2 2,0 4,-1 5,-2 1,0 2,-1 2,-3 0,-1 -1,-3 -3,-4 -2,-1 -4,-2 -8,-3 -1,0 -3,-1 -5,-2 -2,-1 -4,-2 -5,-3 -2,-1 -3,-3 -4,-4 0,-2 -1,-4 -1,-6 0,-3 1,-5 2,-7 1,-2 2,-3 4,-5 2,-1 4,-2 6,-3 3,0 5,-1 7,-1 8,0 14,3 19,9l-7 8c-2,-2 -3,-4 -5,-5 -2,-1 -4,-1 -6,-1 -1,0 -2,0 -3,0 0,0 -1,1 -2,1 -1,0 -1,1 -2,1 0,1 0,2 0,2 0,2 0,3 2,4 2,1 4,2 8,3 2,0 4,1 6,2 2,1 3,2 5,4 1,1 2,2 3,4 1,2 1,4 1,6z"/>
    <path class="fil0" d="M382 63c-1,1 -2,2 -4,2 -2,1 -3,1 -5,1 -3,0 -6,0 -8,-1 -2,-1 -3,-2 -4,-4 -2,-1 -3,-3 -3,-5 -1,-3 -1,-5 -1,-8l0 -24 -6 0 0 -5c7,-4 13,-11 15,-19l4 0 0 13 12 0 0 11 -12 0 0 25c0,1 0,2 0,3 0,0 1,1 1,2 1,0 1,0 2,0 1,1 1,1 2,1 1,0 2,0 4,-1 1,0 2,-1 3,-1l0 10z"/>
    <path class="fil0" d="M474 20c0,0 -7,11 -7,11 -2,-3 -5,-5 -8,-5l0 0c-5,0 -9,4 -9,9l0 28c0,1 0,2 0,3l-12 0 0 -53 12 0 0 5c4,-5 12,-6 18,-3 2,1 4,3 6,5z"/>
    <path class="fil0" d="M521 66l-12 0 0 -32c0,-5 -5,-10 -11,-10l0 0c-5,0 -10,5 -10,10l0 32 -12 0 0 -53 12 0 0 5c3,-2 7,-4 10,-4 1,0 2,-1 4,-1 2,0 5,1 7,2 2,0 4,2 6,3 2,2 3,4 4,7 2,2 2,6 2,9l0 32z"/>
    <path class="fil1" d="M410 13c14,0 26,12 26,27 0,1 -1,4 -1,4l0 0 0 0 -40 0c2,7 8,11 15,11 4,0 8,-2 11,-5l8 7c-5,6 -12,9 -19,9 -15,0 -27,-12 -27,-26 0,-15 12,-27 27,-27zm14 22c-2,-6 -8,-11 -14,-11 -7,0 -13,5 -15,11l29 0z"/>
    <path class="fil1" d="M285 13c14,0 26,12 26,27 0,1 -1,4 -1,4l0 0 0 0 -40 0c2,7 8,11 15,11 4,0 8,-2 11,-5l8 7c-5,6 -12,9 -19,9 -15,0 -27,-12 -27,-26 0,-15 12,-27 27,-27zm14 22c-2,-6 -8,-11 -14,-11 -7,0 -13,5 -15,11l29 0z"/>
    <path class="fil0" d="M201 79l2 0 0 15 -2 0 0 -15zm16 15l-3 -5c0,0 -1,0 -1,0l-3 0 0 5 -3 0 0 -15 6 0c2,0 4,0 5,1 1,1 1,2 1,4 0,1 0,2 0,3 -1,1 -2,1 -3,2l4 5 -3 0zm-4 -7c2,0 3,0 3,0 1,-1 1,-2 1,-3 0,-1 0,-2 -1,-2 0,-1 -1,-1 -3,-1l-3 0 0 6 3 0zm20 7l-3 -5c-1,0 -1,0 -1,0l-4 0 0 5 -2 0 0 -15 6 0c2,0 3,0 4,1 1,1 2,2 2,4 0,1 -1,2 -1,3 -1,1 -1,1 -2,2l3 5 -2 0zm-4 -7c1,0 2,0 3,0 0,-1 1,-2 1,-3 0,-1 -1,-2 -1,-2 -1,-1 -2,-1 -3,-1l-4 0 0 6 4 0zm9 -8l2 0 0 15 -2 0 0 -15zm17 7l2 0 0 6c-1,1 -2,1 -3,1 -1,1 -2,1 -3,1 -1,0 -2,0 -4,-1 -1,-1 -2,-2 -2,-3 -1,-1 -1,-2 -1,-4 0,-1 0,-2 1,-4 0,-1 1,-2 2,-2 2,-1 3,-1 4,-1 2,0 3,0 4,0 1,1 1,1 2,2l-1 1c-1,-1 -3,-1 -4,-1 -2,0 -3,0 -3,0 -1,1 -2,2 -3,2 0,1 0,2 0,3 0,1 0,2 0,3 1,1 2,2 3,2 0,1 1,1 3,1 1,0 2,0 3,-1l0 -5zm15 4l-7 0 -2 4 -2 0 7 -15 2 0 6 15 -2 0 -2 -4zm0 -2l-3 -7 -4 7 7 0zm9 -7l-5 0 0 -2 12 0 0 2 -5 0 0 13 -2 0 0 -13zm9 -2l2 0 0 15 -2 0 0 -15zm13 15c-1,0 -2,0 -4,-1 -1,-1 -2,-2 -2,-3 -1,-1 -1,-2 -1,-4 0,-1 0,-2 1,-4 0,-1 1,-2 2,-2 2,-1 3,-1 4,-1 2,0 3,0 4,1 2,0 3,1 3,2 1,2 1,3 1,4 0,2 0,3 -1,4 0,1 -1,2 -3,3 -1,1 -2,1 -4,1zm0 -2c1,0 2,0 3,-1 1,0 2,-1 2,-2 1,-1 1,-2 1,-3 0,-1 0,-2 -1,-3 0,0 -1,-1 -2,-2 -1,0 -2,0 -3,0 -1,0 -2,0 -3,0 0,1 -1,2 -2,2 0,1 0,2 0,3 0,1 0,2 0,3 1,1 2,2 2,2 1,1 2,1 3,1zm24 -13l0 15 -2 0 -8 -11 0 11 -3 0 0 -15 2 0 9 11 0 -11 2 0zm15 15c-1,0 -3,0 -4,-1 -1,0 -1,0 -2,-1l1 -2c0,1 1,1 2,2 1,0 2,0 3,0 1,0 2,0 2,-1 1,0 1,-1 1,-1 0,-1 0,-1 0,-1 -1,-1 -1,-1 -1,-1 -1,0 -2,-1 -2,-1 -2,0 -3,0 -3,-1 -1,0 -1,0 -2,-1 0,0 -1,-1 -1,-2 0,-1 1,-2 1,-2 0,-1 1,-1 2,-2 1,0 2,0 3,0 1,0 2,0 3,0 0,0 1,1 2,1l-1 2c-1,-1 -1,-1 -2,-1 -1,0 -1,0 -2,0 -1,0 -2,0 -3,0 0,1 -1,1 -1,2 0,0 1,1 1,1 0,0 1,1 1,1 1,0 1,0 2,0 1,1 2,1 3,1 1,0 1,1 2,1 0,1 0,2 0,3 0,0 0,1 0,2 -1,0 -1,1 -2,1 -1,1 -2,1 -3,1zm14 -5l0 5 -2 0 0 -5 -6 -10 2 0 5 8 5 -8 2 0 -6 10zm12 5c-1,0 -2,0 -3,-1 -1,0 -2,0 -3,-1l1 -2c0,1 1,1 2,2 1,0 2,0 3,0 1,0 2,0 3,-1 0,0 0,-1 0,-1 0,-1 0,-1 0,-1 0,-1 -1,-1 -1,-1 -1,0 -1,-1 -2,-1 -1,0 -2,0 -3,-1 -1,0 -1,0 -2,-1 0,0 -1,-1 -1,-2 0,-1 1,-2 1,-2 1,-1 1,-1 2,-2 1,0 2,0 3,0 1,0 2,0 3,0 1,0 1,1 2,1l-1 2c0,-1 -1,-1 -2,-1 0,0 -1,0 -2,0 -1,0 -2,0 -3,0 0,1 0,1 0,2 0,0 0,1 0,1 0,0 1,1 1,1 1,0 1,0 2,0 1,1 2,1 3,1 1,0 1,1 2,1 0,1 1,2 1,3 0,0 -1,1 -1,2 -1,0 -1,1 -2,1 -1,1 -2,1 -3,1zm11 -13l-5 0 0 -2 12 0 0 2 -5 0 0 13 -2 0 0 -13zm21 11l0 2 -11 0 0 -15 10 0 0 2 -8 0 0 4 7 0 0 2 -7 0 0 5 9 0zm17 2l0 -11 -6 9 -1 0 -5 -9 0 11 -2 0 0 -15 2 0 6 10 6 -10 2 0 0 15 -2 0zm18 -15c1,0 3,0 4,1 1,1 2,2 2,4 0,2 -1,3 -2,4 -1,1 -3,1 -4,1l-4 0 0 5 -2 0 0 -15 6 0zm0 8c1,0 2,0 3,0 0,-1 1,-2 1,-3 0,-1 -1,-2 -1,-2 -1,-1 -2,-1 -3,-1l-4 0 0 6 4 0zm22 -8l-7 15 -2 0 -7 -15 3 0 5 12 5 -12 3 0zm5 2l-6 0 0 -2 13 0 0 2 -5 0 0 13 -2 0 0 -13zm8 13c0,0 0,0 -1,-1 0,0 0,0 0,-1 0,0 0,0 0,-1 1,0 1,0 1,0 1,0 1,0 1,0 1,1 1,1 1,1 0,1 0,1 -1,1 0,1 0,1 -1,1zm11 -15l2 0 0 13 8 0 0 2 -10 0 0 -15zm14 2l-5 0 0 -2 12 0 0 2 -5 0 0 13 -2 0 0 -13zm9 -2l7 0c1,0 3,0 4,1 1,0 2,1 3,2 0,2 1,3 1,4 0,2 -1,3 -1,4 -1,1 -2,2 -3,3 -1,0 -3,1 -4,1l-7 0 0 -15zm6 13c2,0 3,0 4,-1 1,0 1,-1 2,-2 0,-1 0,-2 0,-3 0,-1 0,-2 0,-3 -1,0 -1,-1 -2,-2 -1,0 -2,0 -4,0l-4 0 0 11 4 0zm12 2c-1,0 -1,0 -1,-1 -1,0 -1,0 -1,-1 0,0 0,0 1,-1 0,0 0,0 1,0 0,0 0,0 1,0 0,1 0,1 0,1 0,1 0,1 0,1 -1,1 -1,1 -1,1z"/>
   </g>
   <g>
    <path class="fil2" d="M22 7c12,0 22,10 22,22 0,12 -10,22 -22,22 -12,0 -22,-10 -22,-22 0,-12 10,-22 22,-22z"/>
    <path class="fil3" d="M69 7c12,0 22,10 22,22 0,12 -10,22 -22,22 -12,0 -22,-10 -22,-22 0,-12 10,-22 22,-22z"/>
    <path class="fil4" d="M116 7c13,0 22,10 22,22 0,12 -9,22 -22,22 -12,0 -21,-10 -21,-22 0,-12 9,-22 21,-22z"/>
    <path class="fil5" d="M46 48c12,0 22,10 22,22 0,12 -10,22 -22,22 -13,0 -22,-10 -22,-22 0,-12 9,-22 22,-22z"/>
    <path class="fil6" d="M93 48c12,0 22,10 22,22 0,12 -10,22 -22,22 -12,0 -22,-10 -22,-22 0,-12 10,-22 22,-22z"/>
   </g>
  </g>
 </g>
</svg>
