<?xml version="1.0" encoding="UTF-8"?>
<!DOCTYPE svg PUBLIC "-//W3C//DTD SVG 1.1//EN" "http://www.w3.org/Graphics/SVG/1.1/DTD/svg11.dtd">
<!-- Creator: CorelDRAW X8 -->
<svg xmlns="http://www.w3.org/2000/svg" xml:space="preserve" width="3.33318in" height="0.600394in" version="1.1" style="shape-rendering:geometricPrecision; text-rendering:geometricPrecision; image-rendering:optimizeQuality; fill-rule:evenodd; clip-rule:evenodd"
viewBox="0 0 930 167"
 xmlns:xlink="http://www.w3.org/1999/xlink">
 <defs>
  <style type="text/css">
   <![CDATA[
    .fil1 {fill:white}
    .fil0 {fill:white;fill-rule:nonzero}
   ]]>
  </style>
 </defs>
 <g id="Layer_x0020_1">
  <metadata id="CorelCorpID_0Corel-Layer"/>
  <g id="_2129450494512">
   <g>
    <g>
     <polygon class="fil0" points="470,23 440,118 420,118 403,61 385,118 365,118 335,23 359,23 376,82 392,23 412,23 429,82 446,23 "/>
     <path class="fil0" d="M624 90c0,5 -2,9 -4,12 -2,4 -4,6 -8,9 -3,2 -7,4 -11,5 -4,1 -8,2 -12,2 -7,0 -13,-2 -19,-4 -5,-3 -10,-7 -15,-12l14 -14c2,4 5,6 9,8 3,2 7,3 11,3 4,0 7,-1 9,-2 2,-1 3,-3 3,-6 0,-2 -1,-5 -5,-6 -3,-2 -8,-4 -13,-6 -4,-1 -7,-2 -11,-4 -3,-1 -6,-3 -8,-5 -3,-3 -5,-5 -7,-8 -1,-3 -2,-7 -2,-11 0,-4 1,-8 3,-11 2,-4 5,-7 8,-9 3,-2 7,-4 11,-5 4,-1 8,-2 13,-2 13,0 24,5 33,15l-13 14c-3,-3 -6,-6 -9,-8 -3,-2 -7,-3 -11,-3 -1,0 -3,1 -4,1 -2,0 -3,1 -4,1 -2,1 -3,2 -3,3 -1,1 -2,2 -2,4 0,2 2,4 5,6 3,2 8,3 13,5 4,1 8,3 11,4 4,2 7,4 9,6 3,3 5,5 6,8 2,3 3,7 3,10z"/>
     <path class="fil0" d="M682 113c-2,2 -5,3 -8,3 -3,1 -6,2 -9,2 -5,0 -9,-1 -13,-2 -4,-2 -6,-4 -9,-6 -2,-3 -3,-6 -4,-10 -1,-5 -2,-9 -2,-15l0 -41 -11 0 0 -10c14,-6 24,-19 26,-34l7 0 0 23 23 0 0 21 -23 0 0 43c0,2 1,4 1,5 1,2 2,3 2,4 1,0 2,1 4,1 1,1 2,1 3,1 2,0 4,-1 7,-1 2,-1 4,-2 6,-3l0 19z"/>
     <path class="fil0" d="M845 35c0,0 -12,20 -12,20 -3,-5 -8,-9 -14,-9l0 0c-9,0 -16,7 -16,16l0 51c0,1 0,3 0,5l-22 0 0 -95 22 0 0 9c6,-9 22,-10 32,-5 3,2 7,5 10,8z"/>
     <path class="fil0" d="M930 118l-23 0 0 -57c0,-10 -8,-18 -18,-18l0 0c-10,0 -18,8 -18,18l0 57 -22 0 0 -95 22 0 0 10c4,-4 12,-7 18,-9 2,0 4,0 6,0 4,0 9,1 13,2 4,1 8,4 11,7 3,3 6,6 8,11 2,5 3,11 3,17l0 57z"/>
     <path class="fil1" d="M731 24c26,0 47,21 47,47 0,3 -1,8 -1,8l0 0 0 0 -72 0c3,11 14,19 26,19 8,0 16,-4 21,-10l14 14c-9,10 -21,16 -35,16 -26,0 -47,-21 -47,-47 0,-26 21,-47 47,-47zm26 38c-4,-11 -14,-19 -26,-19 -12,0 -22,8 -26,19l52 0z"/>
     <path class="fil1" d="M508 24c26,0 47,21 47,47 0,3 -1,8 -1,8l0 0 0 0 -72 0c3,11 14,19 26,19 8,0 16,-4 21,-10l13 14c-8,10 -21,16 -34,16 -26,0 -47,-21 -47,-47 0,-26 21,-47 47,-47zm26 38c-4,-11 -14,-19 -26,-19 -12,0 -22,8 -26,19l52 0z"/>
    </g>
    <path class="fil0" d="M358 141l4 0 0 26 -4 0 0 -26zm30 26l-6 -8c-1,0 -1,0 -2,0l-6 0 0 8 -4 0 0 -26 10 0c4,0 7,1 9,2 2,2 2,4 2,7 0,2 0,4 -1,5 -1,2 -2,3 -4,3l6 9 -4 0zm-8 -11c3,0 5,-1 6,-2 1,-1 2,-2 2,-4 0,-2 -1,-3 -2,-4 -1,-1 -3,-2 -6,-2l-6 0 0 12 6 0zm35 11l-5 -8c-1,0 -2,0 -2,0l-7 0 0 8 -3 0 0 -26 10 0c3,0 6,1 8,2 2,2 3,4 3,7 0,2 -1,4 -2,5 -1,2 -2,3 -4,3l6 9 -4 0zm-7 -11c2,0 4,-1 5,-2 2,-1 2,-2 2,-4 0,-2 0,-3 -2,-4 -1,-1 -3,-2 -5,-2l-7 0 0 12 7 0zm17 -15l4 0 0 26 -4 0 0 -26zm30 13l4 0 0 10c-2,1 -3,2 -5,3 -2,0 -4,0 -5,0 -3,0 -5,0 -8,-1 -2,-1 -3,-3 -5,-5 -1,-2 -1,-4 -1,-7 0,-3 0,-5 1,-7 2,-2 3,-4 5,-5 3,-1 5,-2 8,-2 2,0 4,1 5,2 2,0 4,1 5,3l-3 2c-2,-2 -4,-3 -7,-3 -2,0 -4,0 -6,1 -1,1 -2,2 -3,4 -1,1 -2,3 -2,5 0,2 1,4 2,5 1,2 2,3 3,4 2,1 4,1 6,1 2,0 4,0 6,-2l0 -8zm28 7l-14 0 -3 6 -4 0 12 -26 3 0 12 26 -3 0 -3 -6zm-2 -3l-5 -13 -6 13 11 0zm16 -14l-9 0 0 -3 22 0 0 3 -9 0 0 23 -4 0 0 -23zm17 -3l4 0 0 26 -4 0 0 -26zm24 26c-3,0 -5,0 -7,-1 -3,-1 -4,-3 -5,-5 -2,-2 -2,-4 -2,-7 0,-3 0,-5 2,-7 1,-2 2,-4 5,-5 2,-1 4,-2 7,-2 2,0 5,1 7,2 2,1 4,3 5,5 1,2 2,4 2,7 0,3 -1,5 -2,7 -1,2 -3,4 -5,5 -2,1 -5,1 -7,1zm0 -3c2,0 3,0 5,-1 2,-1 3,-2 4,-4 1,-1 1,-3 1,-5 0,-2 0,-4 -1,-5 -1,-2 -2,-3 -4,-4 -2,-1 -3,-1 -5,-1 -2,0 -4,0 -5,1 -2,1 -3,2 -4,4 -1,1 -1,3 -1,5 0,2 0,4 1,5 1,2 2,3 4,4 1,1 3,1 5,1zm42 -23l0 26 -3 0 -16 -20 0 20 -3 0 0 -26 3 0 15 19 0 -19 4 0zm26 26c-2,0 -4,0 -6,0 -2,-1 -3,-2 -4,-3l1 -3c1,1 3,2 4,2 2,1 3,1 5,1 2,0 4,0 5,-1 1,-1 2,-2 2,-3 0,-1 -1,-1 -1,-2 -1,-1 -2,-1 -3,-1 0,-1 -2,-1 -3,-1 -2,-1 -4,-1 -5,-2 -1,0 -2,-1 -3,-2 -1,-1 -1,-2 -1,-4 0,-1 0,-3 1,-4 0,-1 2,-2 3,-3 2,0 3,-1 6,-1 1,0 3,1 4,1 2,0 3,1 4,2l-1 3c-1,-1 -2,-1 -4,-2 -1,0 -2,0 -3,0 -2,0 -4,0 -5,1 -1,1 -2,2 -2,3 0,1 1,2 1,2 1,1 2,1 2,1 1,1 3,1 4,1 2,1 4,1 5,2 1,0 2,1 3,2 1,1 1,2 1,4 0,1 0,3 -1,4 -1,1 -2,2 -3,2 -2,1 -4,1 -6,1zm25 -9l0 9 -3 0 0 -9 -11 -17 4 0 9 14 8 -14 4 0 -11 17zm22 9c-2,0 -4,0 -6,0 -2,-1 -3,-2 -4,-3l1 -3c1,1 2,2 4,2 1,1 3,1 5,1 2,0 4,0 5,-1 1,-1 1,-2 1,-3 0,-1 0,-1 -1,-2 0,-1 -1,-1 -2,-1 -1,-1 -2,-1 -4,-1 -2,-1 -3,-1 -4,-2 -2,0 -3,-1 -3,-2 -1,-1 -2,-2 -2,-4 0,-1 1,-3 1,-4 1,-1 2,-2 4,-3 1,0 3,-1 5,-1 2,0 3,1 5,1 1,0 3,1 4,2l-1 3c-2,-1 -3,-1 -4,-2 -1,0 -2,0 -4,0 -2,0 -3,0 -4,1 -2,1 -2,2 -2,3 0,1 0,2 1,2 0,1 1,1 2,1 1,1 2,1 4,1 2,1 3,1 5,2 1,0 2,1 3,2 0,1 1,2 1,4 0,1 0,3 -1,4 -1,1 -2,2 -4,2 -1,1 -3,1 -5,1zm20 -23l-9 0 0 -3 22 0 0 3 -9 0 0 23 -4 0 0 -23zm36 20l0 3 -19 0 0 -26 19 0 0 3 -15 0 0 8 13 0 0 3 -13 0 0 9 15 0zm31 3l0 -19 -10 16 -1 0 -10 -16 0 19 -4 0 0 -26 4 0 11 18 10 -18 3 0 1 26 -4 0zm32 -26c3,0 6,1 8,2 2,2 3,4 3,7 0,3 -1,5 -3,7 -2,1 -5,2 -8,2l-7 0 0 8 -3 0 0 -26 10 0zm0 15c2,0 4,-1 5,-2 1,-1 2,-2 2,-4 0,-2 -1,-3 -2,-4 -1,-1 -3,-2 -5,-2l-7 0 0 12 7 0zm39 -15l-11 26 -4 0 -12 -26 4 0 10 21 9 -21 4 0zm9 3l-9 0 0 -3 22 0 0 3 -9 0 0 23 -4 0 0 -23zm16 23c-1,0 -1,0 -2,0 0,-1 -1,-1 -1,-2 0,-1 1,-2 1,-2 1,-1 1,-1 2,-1 1,0 1,0 2,1 0,0 0,1 0,2 0,1 0,1 0,2 -1,0 -1,0 -2,0zm18 -26l4 0 0 23 14 0 0 3 -18 0 0 -26zm26 3l-10 0 0 -3 22 0 0 3 -9 0 0 23 -3 0 0 -23zm16 -3l12 0c2,0 5,0 7,1 2,2 4,3 5,5 1,2 2,4 2,7 0,3 -1,5 -2,7 -1,2 -3,3 -5,5 -2,1 -5,1 -7,1l-12 0 0 -26zm11 23c2,0 4,-1 6,-1 2,-1 3,-2 4,-4 1,-1 1,-3 1,-5 0,-2 0,-4 -1,-5 -1,-2 -2,-3 -4,-4 -2,-1 -4,-1 -6,-1l-7 0 0 20 7 0zm20 3c-1,0 -1,0 -2,0 0,-1 0,-1 0,-2 0,-1 0,-2 0,-2 1,-1 1,-1 2,-1 1,0 1,0 2,1 0,0 1,1 1,2 0,1 -1,1 -1,2 -1,0 -1,0 -2,0z"/>
   </g>
   <g>
    <path class="fil1" d="M39 13c22,0 39,18 39,39 0,22 -17,40 -39,40 -21,0 -39,-18 -39,-40 0,-21 18,-39 39,-39z"/>
    <path class="fil1" d="M124 13c21,0 39,18 39,39 0,22 -18,40 -39,40 -22,0 -40,-18 -40,-40 0,-21 18,-39 40,-39z"/>
    <path class="fil1" d="M208 13c21,0 39,18 39,39 0,22 -18,40 -39,40 -22,0 -39,-18 -39,-40 0,-21 17,-39 39,-39z"/>
    <path class="fil1" d="M81 86c22,0 40,18 40,40 0,21 -18,39 -40,39 -21,0 -39,-18 -39,-39 0,-22 18,-40 39,-40z"/>
    <path class="fil1" d="M166 86c21,0 39,18 39,40 0,21 -18,39 -39,39 -22,0 -40,-18 -40,-39 0,-22 18,-40 40,-40z"/>
   </g>
  </g>
 </g>
</svg>
