<svg width="89" height="46" viewBox="0 0 89 46" fill="none" xmlns="http://www.w3.org/2000/svg">
<path fill-rule="evenodd" clip-rule="evenodd" d="M0.599976 34.9756H8.66398C9.23998 33.5356 11.64 25.5676 12.024 25.0876L15.096 35.1676H24.696L27.96 25.1836C28.344 23.9356 31.128 15.4876 31.128 15.0076H22.968L19.32 24.7996L16.536 15.5836C16.44 15.2956 16.344 14.4316 16.056 14.4316H7.60798C7.31998 14.4316 6.83998 16.2556 6.64798 16.8316C6.35998 17.6956 6.07198 18.5596 5.78398 19.4236C5.30398 20.6716 0.695976 34.3996 0.599976 34.9756ZM50.52 35.6476H58.968C59.256 35.0716 59.544 33.7276 59.736 33.0556C59.928 32.0956 60.12 31.3276 60.408 30.4636C60.696 29.4076 64.632 15.1996 64.632 14.7196H56.28L50.52 35.6476ZM81.816 35.9356L83.736 29.9836H71.544C71.64 29.5036 74.232 21.2476 74.424 20.9596H86.712L88.056 15.2956C82.68 15.2956 77.304 15.2956 71.928 15.2956C68.664 15.2956 68.664 14.9116 67.32 18.6556C66.648 20.6716 65.976 22.7836 65.4 24.7036C64.824 26.8156 64.152 28.7356 63.48 30.7516C62.616 33.4396 63.288 35.3596 65.976 35.6476C68.376 35.9356 71.448 35.7436 73.848 35.8396C76.536 35.8396 79.224 35.9356 81.816 35.9356ZM29.976 29.6956L28.056 34.9756C28.92 35.0716 41.304 35.0716 42.552 35.0716C43.704 35.0716 44.76 35.1676 45.72 34.6876C46.584 34.2076 47.256 33.6316 47.736 32.9596C49.176 30.9436 50.424 27.1036 49.56 24.4156C49.272 23.4556 48.504 23.0716 47.352 22.9756C46.2 22.8796 44.856 22.8796 43.8 22.8796C42.552 22.8796 41.304 23.0716 40.824 22.3036C40.152 21.3436 40.632 20.0956 41.4 19.8076C42.072 19.6156 50.52 19.8076 52.248 19.7116C52.44 19.4236 53.496 15.1996 53.496 14.8156C48.6 14.9116 43.704 14.8156 38.904 14.8156C36.312 14.9116 35.064 15.8716 34.104 17.4076C33.048 19.1356 31.224 24.0316 33.144 25.6636C33.816 26.3356 35.256 26.1436 36.312 26.1436C37.56 26.1436 38.808 26.1436 39.96 26.1436C41.304 26.1436 42.168 26.1436 42.456 27.3916C42.744 28.5436 42.072 29.5996 41.016 29.6956C39.864 29.7916 38.52 29.6956 37.368 29.6956C34.968 29.6956 32.472 29.6956 29.976 29.6956Z" fill="black"/>
<path d="M13.656 5.2161H12.408V8.0001C12.408 8.2881 12.216 8.4801 11.928 8.7681C11.544 8.9601 11.16 9.0561 10.68 9.0561L10.296 8.1921C10.392 8.1921 10.488 8.2881 10.584 8.2881C10.68 8.2881 10.872 8.1921 10.968 8.0961C11.064 8.0001 11.16 7.9041 11.16 7.7121V5.2161H9.52797V8.3841C9.52797 8.6721 9.62397 8.8641 9.71997 9.1521C9.91197 9.4401 10.104 9.6321 10.296 9.7281L12.408 10.9761C12.696 11.0721 12.888 11.2641 13.08 11.5521C13.272 11.7441 13.368 11.9361 13.368 12.1281C13.368 12.2241 13.368 12.4161 13.176 12.5121C13.08 12.7041 12.888 12.8961 12.696 12.9921L11.544 12.1281C11.832 12.0321 12.024 11.8401 12.024 11.6481C12.024 11.4561 11.928 11.3601 11.736 11.1681C11.448 10.9761 11.256 10.7841 11.064 10.6881L9.23997 9.8241C8.95197 9.6321 8.75997 9.5361 8.56797 9.2481C8.37597 8.9601 8.27997 8.7681 8.27997 8.5761V5.2161H7.41597L6.83997 4.0641H13.08L13.656 5.2161ZM19.704 5.2161H18.072V11.0721L16.824 10.4001V8.0961H15.288C15.288 8.0961 15.192 8.1921 15.096 8.1921C15.096 8.2881 15 8.3841 15 8.4801V8.9601C15 9.1521 14.904 9.2481 14.808 9.2481C14.52 9.2481 14.232 9.0561 13.944 8.6721C13.656 8.2881 13.56 7.9041 13.56 7.5201C13.56 7.4241 13.56 7.3281 13.656 7.1361C13.752 7.0401 13.944 7.0401 14.04 7.0401H16.824V5.2161H13.176L12.6 4.0641H19.128L19.704 5.2161ZM33.432 5.2161H32.184V8.0001C32.184 8.2881 31.992 8.4801 31.608 8.7681C31.32 8.9601 30.936 9.0561 30.36 9.0561L29.976 8.1921C30.072 8.1921 30.168 8.2881 30.264 8.2881C30.456 8.2881 30.552 8.1921 30.648 8.0961C30.84 8.0001 30.936 7.9041 30.936 7.7121V5.2161H29.208V8.3841C29.208 8.6721 29.304 8.8641 29.496 9.1521C29.688 9.4401 29.88 9.6321 30.072 9.7281L32.184 10.9761C32.376 11.0721 32.568 11.2641 32.76 11.5521C33.048 11.7441 33.144 11.9361 33.144 12.1281C33.144 12.2241 33.048 12.4161 32.952 12.5121C32.76 12.7041 32.664 12.8961 32.376 12.9921L31.32 12.1281C31.608 12.0321 31.704 11.8401 31.704 11.6481C31.704 11.4561 31.608 11.3601 31.416 11.1681C31.224 10.9761 30.936 10.7841 30.744 10.6881L28.92 9.8241C28.728 9.6321 28.44 9.5361 28.248 9.2481C28.056 8.9601 27.96 8.7681 27.96 8.5761V5.2161H27.192L26.52 4.0641H32.76L33.432 5.2161ZM38.136 5.2161H35.736V7.4241C36.024 7.6161 36.312 7.6161 36.6 7.6161C37.08 7.6161 37.56 7.3281 38.136 6.7521V5.2161ZM38.136 8.0961C37.656 8.3841 37.272 8.5761 36.792 8.5761C36.504 8.5761 36.12 8.3841 35.64 7.9041C35.544 8.1921 35.448 8.4801 35.256 8.5761C35.16 8.7681 34.872 8.8641 34.584 8.9601L36.504 10.8801L36.024 11.3601L34.392 9.5361C34.104 9.1521 33.816 8.7681 33.528 8.3841C33.336 8.0961 33.24 7.7121 33.24 7.4241C33.24 7.3281 33.24 7.1361 33.432 7.0401C33.528 6.9441 33.624 6.9441 33.816 6.9441C33.912 6.9441 34.008 7.0401 34.296 7.1361C34.392 7.1361 34.488 7.0401 34.488 6.8481V5.2161H32.952L32.28 4.0641H40.344L40.92 5.2161H39.384V11.0721L38.136 10.2081V8.0961ZM54.552 5.2161H52.344V11.0721L51.096 10.4001V8.3841C50.904 8.4801 50.712 8.5761 50.52 8.5761C50.136 8.5761 49.656 8.2881 49.08 7.9041C49.368 8.2881 49.464 8.5761 49.464 8.9601C49.464 9.3441 49.368 9.7281 49.08 10.1121C48.792 10.4961 48.408 10.5921 47.832 10.5921C47.256 10.5921 46.68 10.4001 46.104 9.9201C45.528 9.3441 45.048 8.7681 44.664 7.9041L45.048 7.6161C45.336 8.1921 45.624 8.5761 46.104 8.9601C46.488 9.3441 46.968 9.4401 47.352 9.4401C47.736 9.4401 48.024 9.3441 48.312 9.0561C48.504 8.8641 48.6 8.5761 48.6 8.1921C48.6 7.9041 48.504 7.7121 48.408 7.5201C47.928 7.8081 47.448 7.9041 46.872 8.0001L46.488 6.9441C46.776 6.9441 47.256 6.8481 47.736 6.6561C48.312 6.4641 48.6 6.1761 48.6 5.6001C48.6 5.4081 48.504 5.2161 48.312 5.1201C48.216 5.0241 47.928 4.9281 47.736 4.9281C47.16 4.9281 46.584 5.2161 46.008 5.6961L45.336 4.7361C45.912 4.3521 46.488 4.0641 47.064 4.0641C47.64 4.0641 48.12 4.2561 48.6 4.7361C49.176 5.1201 49.368 5.6001 49.368 6.0801C49.368 6.4641 49.176 6.9441 48.792 7.2321C49.08 7.4241 49.464 7.5201 50.136 7.5201C50.424 7.5201 50.712 7.3281 51.096 6.9441V5.2161H50.232L49.656 4.0641H56.76L57.432 5.2161H55.8V11.0721L54.552 10.2081V5.2161ZM62.904 5.2161H61.464V6.8481H59.16C58.968 6.8481 58.776 6.9441 58.68 7.1361C58.488 7.2321 58.488 7.4241 58.488 7.6161C58.488 7.7121 58.488 7.8081 58.488 7.9041C58.584 7.9041 58.584 8.0001 58.68 8.0001C58.872 8.0001 59.16 7.9041 59.448 7.8081C59.832 7.7121 60.12 7.7121 60.312 7.7121C60.6 7.7121 60.984 7.9041 61.272 8.2881C61.656 8.6721 61.752 9.0561 61.752 9.3441C61.752 9.8241 61.56 10.2081 61.176 10.5921C60.792 10.9761 60.312 11.2641 59.736 11.3601L60.6 12.8961L60.024 13.1841L59.256 11.4561C58.872 11.4561 58.392 11.3601 58.104 11.1681C57.816 10.8801 57.624 10.6881 57.624 10.4001C57.624 10.2081 57.624 10.0161 57.816 9.9201C57.912 9.8241 58.008 9.7281 58.2 9.7281C58.488 9.7281 58.776 9.9201 58.968 10.2081C59.448 10.2081 59.928 10.1121 60.216 9.9201C60.6 9.6321 60.792 9.3441 60.792 9.0561C60.792 8.8641 60.792 8.8641 60.696 8.8641C60.504 8.8641 60.312 8.8641 60.12 8.9601C59.832 9.0561 59.64 9.0561 59.448 9.0561C59.064 9.0561 58.584 8.8641 58.2 8.3841C57.72 7.9041 57.528 7.4241 57.528 6.9441C57.528 6.6561 57.624 6.3681 57.912 6.1761C58.104 5.9841 58.392 5.8881 58.68 5.8881H60.216V5.2161H56.952L56.28 4.0641H62.328L62.904 5.2161ZM62.04 2.4321H61.656C61.464 1.9521 61.176 1.6641 60.792 1.6641C60.6 1.6641 60.504 1.7601 60.312 1.9521C60.216 2.0481 60.216 2.2401 60.216 2.4321C60.216 2.7201 60.216 2.9121 60.408 3.2001C60.504 3.4881 60.696 3.7761 60.984 4.0641H60.408C59.736 3.2961 59.448 2.5281 59.448 1.9521C59.448 1.5681 59.544 1.2801 59.736 0.992102C60.024 0.800102 60.216 0.704102 60.6 0.704102C60.984 0.704102 61.272 0.800102 61.464 1.0881C61.752 1.3761 61.944 1.8561 62.04 2.4321ZM75.576 5.2161H73.176V7.4241C73.464 7.6161 73.752 7.6161 74.04 7.6161C74.52 7.6161 75 7.3281 75.576 6.7521V5.2161ZM75.576 8.0961C75.096 8.3841 74.712 8.5761 74.232 8.5761C73.944 8.5761 73.56 8.3841 73.08 7.9041C72.984 8.1921 72.888 8.4801 72.696 8.5761C72.6 8.7681 72.312 8.8641 72.024 8.9601L73.944 10.8801L73.464 11.3601L71.832 9.5361C71.544 9.1521 71.256 8.7681 70.968 8.3841C70.776 8.0961 70.68 7.7121 70.68 7.4241C70.68 7.3281 70.776 7.1361 70.872 7.0401C70.968 6.9441 71.064 6.9441 71.256 6.9441C71.352 6.9441 71.448 7.0401 71.736 7.1361C71.832 7.1361 71.928 7.0401 71.928 6.8481V5.2161H70.392L69.72 4.0641H77.784L78.456 5.2161H76.824V11.0721L75.576 10.2081V8.0961ZM81.816 5.2161H80.184V11.0721L78.936 10.2081V5.2161H77.88L77.304 4.0641H79.128C79.032 3.5841 78.936 3.1041 78.648 2.7201C78.36 2.4321 78.072 2.2401 77.688 2.2401C77.4 2.2401 77.208 2.3361 77.016 2.5281C76.824 2.7201 76.728 2.9121 76.728 3.2001C76.728 3.3921 76.824 3.5841 76.824 3.7761H76.152C75.96 3.4881 75.864 3.1041 75.864 2.7201C75.864 2.2401 75.96 1.9521 76.248 1.5681C76.536 1.2801 76.824 1.1841 77.304 1.1841C77.88 1.1841 78.36 1.4721 78.84 1.9521C79.32 2.5281 79.608 3.2001 79.8 4.0641H81.144L81.816 5.2161Z" fill="black"/>
<path d="M4.41687 38.7556V43.4092H3.56704L1.54244 40.4802H1.50836V43.4092H0.524461V38.7556H1.38793L3.39662 41.6822H3.43752V38.7556H4.41687Z" fill="black"/>
<path d="M7.65699 40.0939C7.63882 39.9106 7.5608 39.7682 7.42295 39.6667C7.2851 39.5652 7.09801 39.5145 6.8617 39.5145C6.70112 39.5145 6.56554 39.5372 6.45496 39.5827C6.34437 39.6266 6.25954 39.6879 6.20046 39.7667C6.1429 39.8455 6.11412 39.9349 6.11412 40.0348C6.11109 40.1182 6.12851 40.1909 6.16638 40.253C6.20577 40.3151 6.25954 40.3689 6.32771 40.4143C6.39588 40.4582 6.47465 40.4969 6.56403 40.5302C6.6534 40.562 6.74884 40.5893 6.85034 40.612L7.26843 40.712C7.47143 40.7574 7.65775 40.818 7.82742 40.8938C7.99708 40.9695 8.14402 41.0627 8.26824 41.1733C8.39246 41.2838 8.48865 41.4141 8.55682 41.5641C8.6265 41.7141 8.6621 41.886 8.66361 42.0799C8.6621 42.3647 8.58939 42.6116 8.44548 42.8207C8.30308 43.0282 8.09706 43.1895 7.82742 43.3047C7.55929 43.4183 7.23587 43.4751 6.85715 43.4751C6.48147 43.4751 6.15426 43.4175 5.87553 43.3024C5.59831 43.1873 5.38169 43.0168 5.22566 42.7911C5.07114 42.5639 4.9901 42.2829 4.98252 41.9481H5.93461C5.94521 42.1041 5.9899 42.2344 6.06867 42.3389C6.14896 42.4419 6.25576 42.52 6.38906 42.573C6.52388 42.6245 6.67613 42.6502 6.84579 42.6502C7.01242 42.6502 7.15709 42.626 7.2798 42.5775C7.40401 42.5291 7.50021 42.4616 7.56838 42.3753C7.63654 42.2889 7.67063 42.1897 7.67063 42.0776C7.67063 41.9731 7.63957 41.8852 7.57746 41.814C7.51687 41.7428 7.42749 41.6822 7.30934 41.6323C7.19269 41.5823 7.04954 41.5368 6.87988 41.4959L6.37316 41.3687C5.98081 41.2732 5.67102 41.124 5.4438 40.921C5.21657 40.718 5.10371 40.4446 5.10523 40.1007C5.10371 39.819 5.1787 39.5728 5.33018 39.3623C5.48318 39.1517 5.69299 38.9873 5.9596 38.8692C6.22622 38.751 6.52919 38.6919 6.86851 38.6919C7.2139 38.6919 7.51536 38.751 7.77288 38.8692C8.03192 38.9873 8.2334 39.1517 8.37731 39.3623C8.52122 39.5728 8.59545 39.8167 8.59999 40.0939H7.65699Z" fill="black"/>
<path d="M10.4363 38.7556V43.4092H9.45244V38.7556H10.4363Z" fill="black"/>
<path d="M15.2865 40.3848H14.2912C14.273 40.256 14.2359 40.1416 14.1799 40.0417C14.1238 39.9402 14.0519 39.8538 13.964 39.7826C13.8761 39.7114 13.7747 39.6569 13.6595 39.619C13.5459 39.5811 13.4224 39.5622 13.2891 39.5622C13.0483 39.5622 12.8385 39.622 12.6597 39.7417C12.481 39.8599 12.3424 40.0326 12.2439 40.2598C12.1454 40.4855 12.0962 40.7597 12.0962 41.0824C12.0962 41.4141 12.1454 41.6929 12.2439 41.9186C12.3439 42.1443 12.4832 42.3147 12.662 42.4298C12.8407 42.545 13.0475 42.6025 13.2823 42.6025C13.4141 42.6025 13.5361 42.5851 13.6482 42.5503C13.7618 42.5154 13.8625 42.4647 13.9504 42.398C14.0382 42.3298 14.1109 42.2473 14.1685 42.1503C14.2276 42.0534 14.2685 41.9428 14.2912 41.8186L15.2865 41.8231C15.2607 42.0367 15.1963 42.2427 15.0933 42.4412C14.9918 42.6381 14.8547 42.8146 14.682 42.9706C14.5109 43.1251 14.3064 43.2478 14.0685 43.3387C13.8322 43.4281 13.5648 43.4728 13.2664 43.4728C12.8513 43.4728 12.4802 43.3789 12.153 43.191C11.8273 43.0032 11.5698 42.7313 11.3804 42.3753C11.1926 42.0193 11.0987 41.5883 11.0987 41.0824C11.0987 40.5749 11.1941 40.1432 11.385 39.7872C11.5758 39.4312 11.8349 39.16 12.1621 38.9737C12.4893 38.7859 12.8574 38.6919 13.2664 38.6919C13.5361 38.6919 13.786 38.7298 14.0163 38.8055C14.248 38.8813 14.4533 38.9919 14.6321 39.1373C14.8108 39.2812 14.9562 39.4577 15.0683 39.6667C15.1819 39.8758 15.2547 40.1151 15.2865 40.3848Z" fill="black"/>
<path d="M17.8931 38.5374L16.3934 44.109H15.5595L17.0592 38.5374H17.8931Z" fill="black"/>
<path d="M20.6982 40.2598C20.6664 40.1492 20.6217 40.0515 20.5642 39.9667C20.5066 39.8803 20.4362 39.8076 20.3528 39.7485C20.271 39.6879 20.1771 39.6417 20.0711 39.6099C19.9666 39.5781 19.8507 39.5622 19.7234 39.5622C19.4856 39.5622 19.2765 39.6213 19.0963 39.7394C18.9175 39.8576 18.7782 40.0295 18.6782 40.2553C18.5782 40.4795 18.5282 40.7536 18.5282 41.0778C18.5282 41.402 18.5774 41.6777 18.6759 41.9049C18.7744 42.1322 18.9137 42.3056 19.094 42.4253C19.2743 42.5434 19.4871 42.6025 19.7325 42.6025C19.9552 42.6025 20.1453 42.5631 20.3029 42.4844C20.4619 42.4041 20.5831 42.2912 20.6664 42.1458C20.7512 42.0004 20.7937 41.8284 20.7937 41.63L20.9936 41.6595H19.7939V40.9188H21.7412V41.505C21.7412 41.914 21.6549 42.2655 21.4822 42.5593C21.3095 42.8517 21.0716 43.0774 20.7687 43.2365C20.4657 43.394 20.1188 43.4728 19.728 43.4728C19.2917 43.4728 18.9084 43.3766 18.5782 43.1842C18.248 42.9903 17.9904 42.7154 17.8056 42.3594C17.6223 42.0019 17.5307 41.5777 17.5307 41.0869C17.5307 40.7097 17.5852 40.3734 17.6943 40.078C17.8049 39.7811 17.9594 39.5296 18.1578 39.3236C18.3563 39.1176 18.5873 38.9608 18.8509 38.8533C19.1144 38.7457 19.4 38.6919 19.7075 38.6919C19.9711 38.6919 20.2165 38.7306 20.4437 38.8078C20.671 38.8836 20.8724 38.9911 21.0482 39.1305C21.2254 39.2698 21.3701 39.4357 21.4822 39.6281C21.5943 39.819 21.6662 40.0295 21.698 40.2598H20.6982Z" fill="black"/>
<path d="M22.6044 43.4092V38.7556H24.4404C24.7934 38.7556 25.0941 38.823 25.3425 38.9578C25.5909 39.0911 25.7803 39.2767 25.9106 39.5145C26.0424 39.7508 26.1083 40.0235 26.1083 40.3325C26.1083 40.6415 26.0416 40.9142 25.9083 41.1505C25.775 41.3869 25.5819 41.5709 25.3289 41.7027C25.0774 41.8345 24.7729 41.9004 24.4154 41.9004H23.2452V41.1119H24.2564C24.4457 41.1119 24.6017 41.0793 24.7245 41.0142C24.8487 40.9475 24.9411 40.8559 25.0017 40.7393C25.0638 40.6211 25.0948 40.4855 25.0948 40.3325C25.0948 40.178 25.0638 40.0432 25.0017 39.928C24.9411 39.8114 24.8487 39.7213 24.7245 39.6576C24.6002 39.5925 24.4427 39.5599 24.2518 39.5599H23.5883V43.4092H22.6044Z" fill="black"/>
<path d="M28.8371 38.5374L27.3374 44.109H26.5035L28.0032 38.5374H28.8371Z" fill="black"/>
<path d="M32.4489 38.7556V43.4092H31.599L29.5744 40.4802H29.5403V43.4092H28.5564V38.7556H29.4199L31.4286 41.6822H31.4695V38.7556H32.4489Z" fill="black"/>
<path d="M33.0832 39.5668V38.7556H36.9052V39.5668H35.4804V43.4092H34.5079V39.5668H33.0832Z" fill="black"/>
<path d="M40.2822 40.2598C40.2504 40.1492 40.2057 40.0515 40.1481 39.9667C40.0906 39.8803 40.0201 39.8076 39.9368 39.7485C39.855 39.6879 39.7611 39.6417 39.6551 39.6099C39.5505 39.5781 39.4347 39.5622 39.3074 39.5622C39.0696 39.5622 38.8605 39.6213 38.6803 39.7394C38.5015 39.8576 38.3621 40.0295 38.2622 40.2553C38.1622 40.4795 38.1122 40.7536 38.1122 41.0778C38.1122 41.402 38.1614 41.6777 38.2599 41.9049C38.3583 42.1322 38.4977 42.3056 38.678 42.4253C38.8583 42.5434 39.0711 42.6025 39.3165 42.6025C39.5392 42.6025 39.7293 42.5631 39.8868 42.4844C40.0459 42.4041 40.1671 42.2912 40.2504 42.1458C40.3352 42.0004 40.3776 41.8284 40.3776 41.63L40.5776 41.6595H39.3778V40.9188H41.3252V41.505C41.3252 41.914 41.2388 42.2655 41.0661 42.5593C40.8935 42.8517 40.6556 43.0774 40.3527 43.2365C40.0497 43.394 39.7028 43.4728 39.3119 43.4728C38.8757 43.4728 38.4924 43.3766 38.1622 43.1842C37.8319 42.9903 37.5744 42.7154 37.3896 42.3594C37.2063 42.0019 37.1147 41.5777 37.1147 41.0869C37.1147 40.7097 37.1692 40.3734 37.2783 40.078C37.3888 39.7811 37.5434 39.5296 37.7418 39.3236C37.9403 39.1176 38.1713 38.9608 38.4348 38.8533C38.6984 38.7457 38.984 38.6919 39.2915 38.6919C39.5551 38.6919 39.8005 38.7306 40.0277 38.8078C40.2549 38.8836 40.4564 38.9911 40.6321 39.1305C40.8094 39.2698 40.954 39.4357 41.0661 39.6281C41.1782 39.819 41.2502 40.0295 41.282 40.2598H40.2822Z" fill="black"/>
<path d="M44.1972 38.5374L42.6975 44.109H41.8635L43.3632 38.5374H44.1972Z" fill="black"/>
<path d="M43.8892 43.4092V42.7002L45.5457 41.1664C45.6865 41.0301 45.8047 40.9074 45.9001 40.7983C45.9971 40.6893 46.0705 40.5825 46.1205 40.4779C46.1705 40.3719 46.1955 40.2575 46.1955 40.1348C46.1955 39.9985 46.1645 39.8811 46.1024 39.7826C46.0403 39.6826 45.9554 39.6061 45.8479 39.5531C45.7403 39.4986 45.6184 39.4713 45.482 39.4713C45.3396 39.4713 45.2154 39.5001 45.1094 39.5577C45.0033 39.6152 44.9215 39.6978 44.864 39.8053C44.8064 39.9129 44.7776 40.0409 44.7776 40.1894H43.8437C43.8437 39.8849 43.9126 39.6205 44.0505 39.3963C44.1883 39.1721 44.3815 38.9987 44.6299 38.876C44.8784 38.7533 45.1647 38.6919 45.4888 38.6919C45.8221 38.6919 46.1122 38.751 46.3591 38.8692C46.6076 38.9858 46.8007 39.1479 46.9386 39.3554C47.0764 39.563 47.1453 39.8008 47.1453 40.0689C47.1453 40.2447 47.1105 40.4181 47.0408 40.5893C46.9726 40.7605 46.8507 40.9506 46.675 41.1596C46.4993 41.3672 46.2516 41.6164 45.9319 41.9072L45.2525 42.573V42.6048H47.2067V43.4092H43.8892Z" fill="black"/>
<path d="M49.2658 43.5114C48.875 43.5099 48.5387 43.4137 48.2569 43.2229C47.9767 43.032 47.7608 42.7555 47.6093 42.3935C47.4593 42.0314 47.3851 41.5959 47.3866 41.0869C47.3866 40.5794 47.4616 40.1469 47.6116 39.7894C47.7631 39.4319 47.9789 39.16 48.2592 38.9737C48.5409 38.7859 48.8765 38.6919 49.2658 38.6919C49.6551 38.6919 49.9899 38.7859 50.2702 38.9737C50.5519 39.1615 50.7685 39.4342 50.92 39.7917C51.0715 40.1477 51.1465 40.5794 51.145 41.0869C51.145 41.5974 51.0692 42.0337 50.9177 42.3957C50.7678 42.7578 50.5527 43.0343 50.2724 43.2251C49.9922 43.416 49.6566 43.5114 49.2658 43.5114ZM49.2658 42.6957C49.5324 42.6957 49.7453 42.5616 49.9043 42.2935C50.0634 42.0254 50.1421 41.6232 50.1406 41.0869C50.1406 40.734 50.1043 40.4401 50.0316 40.2053C49.9604 39.9705 49.8589 39.794 49.7271 39.6758C49.5968 39.5577 49.443 39.4986 49.2658 39.4986C49.0007 39.4986 48.7886 39.6311 48.6296 39.8962C48.4705 40.1613 48.3902 40.5582 48.3887 41.0869C48.3887 41.4444 48.4243 41.7428 48.4955 41.9822C48.5682 42.22 48.6705 42.3988 48.8023 42.5184C48.9341 42.6366 49.0886 42.6957 49.2658 42.6957Z" fill="black"/>
<path d="M53.0178 38.7556V43.4092H52.0339V39.6895H52.0066L50.9409 40.3575V39.485L52.0929 38.7556H53.0178Z" fill="black"/>
<path d="M56.3312 43.4728C56.0918 43.4713 55.8608 43.4311 55.6381 43.3524C55.417 43.2736 55.2185 43.1456 55.0428 42.9684C54.8671 42.7911 54.7277 42.5563 54.6247 42.264C54.5232 41.9716 54.4725 41.6126 54.4725 41.1869C54.474 40.7961 54.5187 40.4469 54.6065 40.1394C54.6959 39.8303 54.8231 39.5683 54.9883 39.3532C55.1549 39.1381 55.3541 38.9744 55.5859 38.8623C55.8176 38.7487 56.0774 38.6919 56.3653 38.6919C56.6758 38.6919 56.95 38.7525 57.1878 38.8737C57.4257 38.9934 57.6165 39.1562 57.7604 39.3623C57.9059 39.5683 57.9937 39.7993 58.024 40.0553H57.0538C57.0159 39.8932 56.9364 39.766 56.8152 39.6736C56.694 39.5811 56.544 39.5349 56.3653 39.5349C56.0623 39.5349 55.832 39.6667 55.6745 39.9303C55.5185 40.1939 55.4389 40.5522 55.4359 41.0051H55.4677C55.5374 40.8673 55.6313 40.7499 55.7495 40.6529C55.8691 40.5544 56.0047 40.4795 56.1562 40.428C56.3092 40.3749 56.4705 40.3484 56.6402 40.3484C56.9159 40.3484 57.1613 40.4136 57.3764 40.5438C57.5915 40.6726 57.7612 40.8498 57.8854 41.0755C58.0096 41.3013 58.0717 41.5595 58.0717 41.8504C58.0717 42.1655 57.9983 42.4457 57.8513 42.6911C57.7059 42.9365 57.5022 43.1289 57.2401 43.2683C56.9795 43.4061 56.6766 43.4743 56.3312 43.4728ZM56.3266 42.7002C56.4781 42.7002 56.6137 42.6639 56.7334 42.5912C56.853 42.5184 56.947 42.42 57.0151 42.2958C57.0833 42.1715 57.1174 42.0322 57.1174 41.8777C57.1174 41.7231 57.0833 41.5845 57.0151 41.4618C56.9485 41.3391 56.8561 41.2414 56.7379 41.1687C56.6198 41.096 56.4849 41.0596 56.3335 41.0596C56.2198 41.0596 56.1146 41.0809 56.0176 41.1233C55.9222 41.1657 55.8381 41.2248 55.7654 41.3005C55.6942 41.3762 55.6381 41.4641 55.5972 41.5641C55.5563 41.6626 55.5359 41.7678 55.5359 41.8799C55.5359 42.0299 55.57 42.167 55.6381 42.2912C55.7078 42.4154 55.8017 42.5147 55.9199 42.5889C56.0396 42.6631 56.1751 42.7002 56.3266 42.7002Z" fill="black"/>
<path d="M60.1331 38.5374L58.6334 44.109H57.7995L59.2992 38.5374H60.1331Z" fill="black"/>
<path d="M61.6498 43.5114C61.259 43.5099 60.9227 43.4137 60.6409 43.2229C60.3607 43.032 60.1448 42.7555 59.9933 42.3935C59.8434 42.0314 59.7691 41.5959 59.7707 41.0869C59.7707 40.5794 59.8456 40.1469 59.9956 39.7894C60.1471 39.4319 60.363 39.16 60.6432 38.9737C60.925 38.7859 61.2605 38.6919 61.6498 38.6919C62.0392 38.6919 62.3739 38.7859 62.6542 38.9737C62.9359 39.1615 63.1526 39.4342 63.3041 39.7917C63.4555 40.1477 63.5305 40.5794 63.529 41.0869C63.529 41.5974 63.4533 42.0337 63.3018 42.3957C63.1518 42.7578 62.9367 43.0343 62.6565 43.2251C62.3762 43.416 62.0407 43.5114 61.6498 43.5114ZM61.6498 42.6957C61.9165 42.6957 62.1293 42.5616 62.2883 42.2935C62.4474 42.0254 62.5262 41.6232 62.5247 41.0869C62.5247 40.734 62.4883 40.4401 62.4156 40.2053C62.3444 39.9705 62.2429 39.794 62.1111 39.6758C61.9808 39.5577 61.8271 39.4986 61.6498 39.4986C61.3847 39.4986 61.1727 39.6311 61.0136 39.8962C60.8545 40.1613 60.7743 40.5582 60.7727 41.0869C60.7727 41.4444 60.8083 41.7428 60.8795 41.9822C60.9522 42.22 61.0545 42.3988 61.1863 42.5184C61.3181 42.6366 61.4726 42.6957 61.6498 42.6957Z" fill="black"/>
<path d="M65.2018 43.5114C64.811 43.5099 64.4747 43.4137 64.1929 43.2229C63.9127 43.032 63.6968 42.7555 63.5453 42.3935C63.3954 42.0314 63.3211 41.5959 63.3227 41.0869C63.3227 40.5794 63.3976 40.1469 63.5476 39.7894C63.6991 39.4319 63.915 39.16 64.1952 38.9737C64.477 38.7859 64.8125 38.6919 65.2018 38.6919C65.5912 38.6919 65.9259 38.7859 66.2062 38.9737C66.4879 39.1615 66.7046 39.4342 66.8561 39.7917C67.0075 40.1477 67.0825 40.5794 67.081 41.0869C67.081 41.5974 67.0053 42.0337 66.8538 42.3957C66.7038 42.7578 66.4887 43.0343 66.2085 43.2251C65.9282 43.416 65.5927 43.5114 65.2018 43.5114ZM65.2018 42.6957C65.4685 42.6957 65.6813 42.5616 65.8403 42.2935C65.9994 42.0254 66.0782 41.6232 66.0767 41.0869C66.0767 40.734 66.0403 40.4401 65.9676 40.2053C65.8964 39.9705 65.7949 39.794 65.6631 39.6758C65.5328 39.5577 65.3791 39.4986 65.2018 39.4986C64.9367 39.4986 64.7247 39.6311 64.5656 39.8962C64.4065 40.1613 64.3263 40.5582 64.3247 41.0869C64.3247 41.4444 64.3603 41.7428 64.4315 41.9822C64.5042 42.22 64.6065 42.3988 64.7383 42.5184C64.8701 42.6366 65.0246 42.6957 65.2018 42.6957Z" fill="black"/>
<path d="M67.0252 43.4092V42.7002L68.6817 41.1664C68.8226 41.0301 68.9407 40.9074 69.0362 40.7983C69.1331 40.6893 69.2066 40.5825 69.2566 40.4779C69.3066 40.3719 69.3316 40.2575 69.3316 40.1348C69.3316 39.9985 69.3005 39.8811 69.2384 39.7826C69.1763 39.6826 69.0915 39.6061 68.9839 39.5531C68.8764 39.4986 68.7544 39.4713 68.6181 39.4713C68.4757 39.4713 68.3515 39.5001 68.2454 39.5577C68.1394 39.6152 68.0576 39.6978 68 39.8053C67.9425 39.9129 67.9137 40.0409 67.9137 40.1894H66.9798C66.9798 39.8849 67.0487 39.6205 67.1865 39.3963C67.3244 39.1721 67.5175 38.9987 67.766 38.876C68.0144 38.7533 68.3007 38.6919 68.6249 38.6919C68.9582 38.6919 69.2483 38.751 69.4952 38.8692C69.7436 38.9858 69.9368 39.1479 70.0746 39.3554C70.2125 39.563 70.2814 39.8008 70.2814 40.0689C70.2814 40.2447 70.2465 40.4181 70.1769 40.5893C70.1087 40.7605 69.9867 40.9506 69.811 41.1596C69.6353 41.3672 69.3876 41.6164 69.068 41.9072L68.3886 42.573V42.6048H70.3427V43.4092H67.0252Z" fill="black"/>
<path d="M72.5058 38.7556V43.4092H71.5219V39.6895H71.4946L70.4289 40.3575V39.485L71.581 38.7556H72.5058Z" fill="black"/>
<path d="M74.3132 43.4092L76.2424 39.5918V39.5599H73.9951V38.7556H77.2604V39.5713L75.3289 43.4092H74.3132Z" fill="black"/>
<path d="M79.4672 43.4728C79.2278 43.4713 78.9968 43.4311 78.7741 43.3524C78.553 43.2736 78.3545 43.1456 78.1788 42.9684C78.0031 42.7911 77.8637 42.5563 77.7607 42.264C77.6592 41.9716 77.6084 41.6126 77.6084 41.1869C77.61 40.7961 77.6546 40.4469 77.7425 40.1394C77.8319 39.8303 77.9591 39.5683 78.1242 39.3532C78.2909 39.1381 78.4901 38.9744 78.7219 38.8623C78.9536 38.7487 79.2134 38.6919 79.5012 38.6919C79.8118 38.6919 80.086 38.7525 80.3238 38.8737C80.5616 38.9934 80.7525 39.1562 80.8964 39.3623C81.0419 39.5683 81.1297 39.7993 81.16 40.0553H80.1897C80.1519 39.8932 80.0723 39.766 79.9512 39.6736C79.83 39.5811 79.68 39.5349 79.5012 39.5349C79.1983 39.5349 78.968 39.6667 78.8105 39.9303C78.6544 40.1939 78.5749 40.5522 78.5719 41.0051H78.6037C78.6734 40.8673 78.7673 40.7499 78.8855 40.6529C79.0051 40.5544 79.1407 40.4795 79.2922 40.428C79.4452 40.3749 79.6065 40.3484 79.7762 40.3484C80.0519 40.3484 80.2973 40.4136 80.5124 40.5438C80.7275 40.6726 80.8972 40.8498 81.0214 41.0755C81.1456 41.3013 81.2077 41.5595 81.2077 41.8504C81.2077 42.1655 81.1343 42.4457 80.9873 42.6911C80.8419 42.9365 80.6381 43.1289 80.3761 43.2683C80.1155 43.4061 79.8126 43.4743 79.4672 43.4728ZM79.4626 42.7002C79.6141 42.7002 79.7497 42.6639 79.8694 42.5912C79.989 42.5184 80.083 42.42 80.1511 42.2958C80.2193 42.1715 80.2534 42.0322 80.2534 41.8777C80.2534 41.7231 80.2193 41.5845 80.1511 41.4618C80.0845 41.3391 79.9921 41.2414 79.8739 41.1687C79.7557 41.096 79.6209 41.0596 79.4694 41.0596C79.3558 41.0596 79.2505 41.0809 79.1536 41.1233C79.0582 41.1657 78.9741 41.2248 78.9014 41.3005C78.8302 41.3762 78.7741 41.4641 78.7332 41.5641C78.6923 41.6626 78.6719 41.7678 78.6719 41.8799C78.6719 42.0299 78.706 42.167 78.7741 42.2912C78.8438 42.4154 78.9377 42.5147 79.0559 42.5889C79.1756 42.6631 79.3111 42.7002 79.4626 42.7002Z" fill="black"/>
<path d="M82.821 38.6919C83.0603 38.6919 83.2906 38.7321 83.5117 38.8124C83.7344 38.8926 83.9329 39.0207 84.1071 39.1964C84.2828 39.3721 84.4214 39.6054 84.5229 39.8962C84.6259 40.1856 84.6782 40.5408 84.6797 40.9619C84.6797 41.3573 84.635 41.7103 84.5456 42.0208C84.4578 42.3298 84.3313 42.5927 84.1662 42.8093C84.001 43.0259 83.8018 43.191 83.5685 43.3047C83.3353 43.4168 83.0747 43.4728 82.7869 43.4728C82.4763 43.4728 82.2021 43.413 81.9643 43.2933C81.7265 43.1721 81.5349 43.0077 81.3894 42.8002C81.2455 42.5912 81.1584 42.3564 81.1281 42.0958H82.0984C82.1363 42.2655 82.2158 42.3973 82.337 42.4912C82.4582 42.5836 82.6081 42.6298 82.7869 42.6298C83.0899 42.6298 83.3201 42.498 83.4777 42.2344C83.6352 41.9693 83.7147 41.6065 83.7162 41.146H83.6844C83.6147 41.2823 83.5208 41.3997 83.4027 41.4982C83.2845 41.5951 83.1489 41.6701 82.9959 41.7231C82.8444 41.7762 82.6831 41.8027 82.5119 41.8027C82.2377 41.8027 81.9931 41.7383 81.778 41.6095C81.5629 41.4808 81.3932 41.3035 81.269 41.0778C81.1448 40.8521 81.0827 40.5946 81.0827 40.3052C81.0812 39.9932 81.1531 39.7152 81.2985 39.4713C81.444 39.2274 81.647 39.0366 81.9075 38.8987C82.1696 38.7593 82.4741 38.6904 82.821 38.6919ZM82.8278 39.4645C82.6748 39.4645 82.5384 39.5009 82.4188 39.5736C82.3006 39.6463 82.2067 39.744 82.137 39.8667C82.0688 39.9894 82.0355 40.1265 82.037 40.278C82.037 40.431 82.0704 40.5688 82.137 40.6915C82.2052 40.8127 82.2976 40.9097 82.4142 40.9824C82.5324 41.0536 82.6672 41.0892 82.8187 41.0892C82.9323 41.0892 83.0376 41.068 83.1345 41.0256C83.2315 40.9831 83.3156 40.9248 83.3868 40.8506C83.4595 40.7749 83.5163 40.6877 83.5572 40.5893C83.5981 40.4908 83.6185 40.3863 83.6185 40.2757C83.617 40.1288 83.5822 39.9939 83.514 39.8712C83.4458 39.7485 83.3519 39.6501 83.2322 39.5758C83.1126 39.5016 82.9778 39.4645 82.8278 39.4645Z" fill="black"/>
</svg>
