<svg width="52" height="57" viewBox="0 0 52 57" fill="none" xmlns="http://www.w3.org/2000/svg">
<path fill-rule="evenodd" clip-rule="evenodd" d="M21.184 31.0327H32.032L31.936 40.0567L11.008 39.9607C10.528 39.1927 10.816 36.1207 10.816 34.8727L7.552 34.9687C7.84 43.6087 6.208 43.3207 12.448 43.3207H32.224C36.256 43.3207 35.296 42.6487 35.296 33.0487C35.296 30.8407 35.968 28.0567 33.856 27.7687H23.104L23.008 19.4167C23.104 18.4567 22.912 18.8407 23.392 18.6487H44.032L44.128 23.4487L47.488 23.5447C47.296 14.9047 48.832 15.2887 42.4 15.2887H22.624C19.36 15.2887 19.744 16.2487 19.744 19.2247C19.744 21.4327 19.744 23.5447 19.744 25.7527C19.744 27.9607 19.168 30.5527 21.184 31.0327Z" fill="black"/>
<path fill-rule="evenodd" clip-rule="evenodd" d="M38.08 20.664V43.32H41.152H41.344V20.376H38.08V20.664Z" fill="black"/>
<path fill-rule="evenodd" clip-rule="evenodd" d="M13.696 38.2321H17.056L16.96 37.9441V16.5361H16.768H13.696V38.2321Z" fill="black"/>
<path d="M45.856 10.7764H6.976C4.16598 10.7764 1.888 13.0543 1.888 15.8644V42.0724C1.888 44.8824 4.16598 47.1604 6.976 47.1604H45.856C48.666 47.1604 50.944 44.8824 50.944 42.0724V15.8644C50.944 13.0543 48.666 10.7764 45.856 10.7764Z" stroke="#373435" stroke-width="1.95477"/>
<path d="M9.25501 5.97363V2.13609H10.1431V5.97363H9.25501Z" fill="#373435"/>
<path d="M12.34 6.03942C12.033 6.03942 11.7387 5.99922 11.4573 5.91881C11.1759 5.83475 10.9493 5.72693 10.7775 5.59536L11.079 4.92653C11.2435 5.04349 11.4372 5.14034 11.6602 5.21709C11.8868 5.29018 12.1152 5.32673 12.3454 5.32673C12.5209 5.32673 12.6616 5.31029 12.7676 5.27739C12.8772 5.24084 12.9576 5.1915 13.0088 5.12937C13.0599 5.06724 13.0855 4.99597 13.0855 4.91557C13.0855 4.81323 13.0453 4.73283 12.9649 4.67435C12.8845 4.61222 12.7785 4.56288 12.647 4.52633C12.5154 4.48613 12.3692 4.44958 12.2084 4.41669C12.0512 4.38014 11.8922 4.33628 11.7314 4.28511C11.5743 4.23395 11.4299 4.16816 11.2983 4.08775C11.1668 4.00735 11.0589 3.90136 10.9749 3.76979C10.8945 3.63821 10.8543 3.47009 10.8543 3.26542C10.8543 3.04614 10.9128 2.84695 11.0297 2.66786C11.1503 2.48512 11.3294 2.34076 11.567 2.23477C11.8082 2.12512 12.1097 2.0703 12.4715 2.0703C12.7127 2.0703 12.9503 2.09954 13.1842 2.15802C13.4181 2.21284 13.6246 2.2969 13.8037 2.4102L13.5296 3.08451C13.3505 2.98218 13.1714 2.90725 12.9923 2.85974C12.8133 2.80857 12.6378 2.78299 12.466 2.78299C12.2943 2.78299 12.1536 2.80309 12.0439 2.84329C11.9343 2.8835 11.8557 2.93649 11.8082 3.00228C11.7607 3.06441 11.7369 3.13751 11.7369 3.22157C11.7369 3.32025 11.7771 3.40065 11.8575 3.46278C11.9379 3.52126 12.0439 3.56877 12.1755 3.60532C12.3071 3.64187 12.4514 3.67842 12.6086 3.71496C12.7694 3.75151 12.9284 3.79354 13.0855 3.84105C13.2463 3.88857 13.3925 3.95253 13.5241 4.03293C13.6557 4.11334 13.7617 4.21933 13.8421 4.3509C13.9261 4.48247 13.9682 4.64877 13.9682 4.84978C13.9682 5.06541 13.9079 5.26277 13.7873 5.44186C13.6666 5.62094 13.4857 5.76531 13.2445 5.87495C13.007 5.9846 12.7054 6.03942 12.34 6.03942Z" fill="#373435"/>
<path d="M14.7982 4.04938C14.652 4.04938 14.5259 4.00004 14.4199 3.90136C14.3176 3.79902 14.2664 3.66928 14.2664 3.51212C14.2664 3.35497 14.3176 3.22888 14.4199 3.13385C14.5259 3.03517 14.652 2.98583 14.7982 2.98583C14.948 2.98583 15.0741 3.03517 15.1765 3.13385C15.2788 3.22888 15.33 3.35497 15.33 3.51212C15.33 3.66928 15.2788 3.79902 15.1765 3.90136C15.0741 4.00004 14.948 4.04938 14.7982 4.04938ZM14.7982 6.01749C14.652 6.01749 14.5259 5.96815 14.4199 5.86947C14.3176 5.76714 14.2664 5.63739 14.2664 5.48023C14.2664 5.32308 14.3176 5.19699 14.4199 5.10196C14.5259 5.00328 14.652 4.95394 14.7982 4.95394C14.948 4.95394 15.0741 5.00328 15.1765 5.10196C15.2788 5.19699 15.33 5.32308 15.33 5.48023C15.33 5.63739 15.2788 5.76714 15.1765 5.86947C15.0741 5.96815 14.948 6.01749 14.7982 6.01749ZM17.2373 5.16775V4.57019L19.0465 2.13609H19.9784L18.2077 4.57019L17.7746 4.4441H20.7953V5.16775H17.2373ZM19.3041 5.97363V5.16775L19.3315 4.4441V3.72593H20.1703V5.97363H19.3041Z" fill="#373435"/>
<path d="M22.3624 2.0703C22.7169 2.0703 23.0221 2.1434 23.2779 2.28959C23.5338 2.43578 23.7311 2.64959 23.87 2.93101C24.0089 3.20877 24.0783 3.55598 24.0783 3.97263C24.0783 4.41486 23.9943 4.78948 23.8262 5.09648C23.6617 5.40348 23.4333 5.63739 23.1409 5.7982C22.8485 5.95901 22.5086 6.03942 22.1212 6.03942C21.9202 6.03942 21.7265 6.01749 21.5401 5.97363C21.3537 5.92978 21.1929 5.86399 21.0577 5.77627L21.3866 5.12389C21.4926 5.19699 21.6059 5.24815 21.7265 5.27739C21.8471 5.30298 21.9732 5.31577 22.1048 5.31577C22.4337 5.31577 22.695 5.21526 22.8887 5.01425C23.0861 4.81323 23.1847 4.51537 23.1847 4.12065C23.1847 4.05486 23.1829 3.98176 23.1793 3.90136C23.1756 3.82095 23.1665 3.74055 23.1519 3.66014L23.3931 3.89039C23.3309 4.03293 23.2432 4.15354 23.1299 4.25222C23.0166 4.34725 22.8851 4.42034 22.7352 4.47151C22.5854 4.51902 22.4172 4.54278 22.2308 4.54278C21.986 4.54278 21.763 4.49344 21.562 4.39476C21.3647 4.29608 21.2057 4.1572 21.0851 3.97811C20.9681 3.79902 20.9096 3.58887 20.9096 3.34766C20.9096 3.08451 20.9736 2.85791 21.1015 2.66786C21.2331 2.47781 21.4085 2.33162 21.6278 2.22929C21.8507 2.1233 22.0956 2.0703 22.3624 2.0703ZM22.4172 2.73365C22.2893 2.73365 22.1778 2.75741 22.0828 2.80492C21.9878 2.84878 21.9129 2.91456 21.8581 3.00228C21.8032 3.08634 21.7758 3.18685 21.7758 3.3038C21.7758 3.47923 21.8343 3.61994 21.9513 3.72593C22.0719 3.82826 22.2308 3.87943 22.4282 3.87943C22.5561 3.87943 22.6694 3.85567 22.7681 3.80816C22.8704 3.75699 22.949 3.68755 23.0038 3.59984C23.0587 3.51212 23.0861 3.41344 23.0861 3.3038C23.0861 3.19415 23.0587 3.0973 23.0038 3.01324C22.9527 2.92553 22.8777 2.85791 22.7791 2.8104C22.6804 2.75923 22.5598 2.73365 22.4172 2.73365Z" fill="#373435"/>
<path d="M26.0596 6.03942C25.738 6.03942 25.4566 5.99191 25.2154 5.89688C24.9742 5.7982 24.7859 5.66115 24.6507 5.48572C24.5155 5.30663 24.4479 5.09831 24.4479 4.86075C24.4479 4.62318 24.5136 4.42217 24.6452 4.2577C24.7804 4.08958 24.9687 3.96349 25.2099 3.87943C25.4511 3.79172 25.7343 3.74786 26.0596 3.74786C26.3886 3.74786 26.6736 3.79172 26.9149 3.87943C27.1597 3.96349 27.3479 4.08958 27.4795 4.2577C27.6147 4.42217 27.6824 4.62318 27.6824 4.86075C27.6824 5.09831 27.6147 5.30663 27.4795 5.48572C27.3443 5.66115 27.1542 5.7982 26.9094 5.89688C26.6682 5.99191 26.3849 6.03942 26.0596 6.03942ZM26.0596 5.38704C26.2826 5.38704 26.458 5.3377 26.5859 5.23902C26.7175 5.14034 26.7833 5.00511 26.7833 4.83333C26.7833 4.66156 26.7175 4.52816 26.5859 4.43313C26.458 4.33445 26.2826 4.28511 26.0596 4.28511C25.8403 4.28511 25.6667 4.33445 25.5388 4.43313C25.4109 4.52816 25.3469 4.66156 25.3469 4.83333C25.3469 5.00511 25.4109 5.14034 25.5388 5.23902C25.6667 5.3377 25.8403 5.38704 26.0596 5.38704ZM26.0596 4.1974C25.7636 4.1974 25.5041 4.1572 25.2812 4.07679C25.0619 3.99638 24.8901 3.87943 24.7658 3.72593C24.6452 3.56877 24.5849 3.38238 24.5849 3.16674C24.5849 2.94015 24.647 2.74644 24.7713 2.58563C24.8956 2.42116 25.0692 2.29507 25.2921 2.20736C25.5151 2.11599 25.7709 2.0703 26.0596 2.0703C26.3557 2.0703 26.6133 2.11599 26.8326 2.20736C27.0556 2.29507 27.2292 2.42116 27.3534 2.58563C27.4813 2.74644 27.5453 2.94015 27.5453 3.16674C27.5453 3.38238 27.4832 3.56877 27.3589 3.72593C27.2383 3.87943 27.0665 3.99638 26.8436 4.07679C26.6206 4.1572 26.3593 4.1974 26.0596 4.1974ZM26.0596 3.67659C26.246 3.67659 26.3922 3.63456 26.4982 3.5505C26.6078 3.46644 26.6627 3.35131 26.6627 3.20512C26.6627 3.05162 26.606 2.93284 26.4927 2.84878C26.3831 2.76472 26.2387 2.72269 26.0596 2.72269C25.8842 2.72269 25.7417 2.76472 25.632 2.84878C25.5224 2.93284 25.4675 3.05162 25.4675 3.20512C25.4675 3.35131 25.5205 3.46644 25.6265 3.5505C25.7325 3.63456 25.8769 3.67659 26.0596 3.67659Z" fill="#373435"/>
<path d="M27.9779 5.16775V4.57019L29.7871 2.13609H30.719L28.9483 4.57019L28.5152 4.4441H31.5359V5.16775H27.9779ZM30.0447 5.97363V5.16775L30.0721 4.4441V3.72593H30.9109V5.97363H30.0447Z" fill="#373435"/>
<path d="M32.3662 4.04938C32.22 4.04938 32.0939 4.00004 31.9879 3.90136C31.8856 3.79902 31.8344 3.66928 31.8344 3.51212C31.8344 3.35497 31.8856 3.22888 31.9879 3.13385C32.0939 3.03517 32.22 2.98583 32.3662 2.98583C32.516 2.98583 32.6421 3.03517 32.7445 3.13385C32.8468 3.22888 32.898 3.35497 32.898 3.51212C32.898 3.66928 32.8468 3.79902 32.7445 3.90136C32.6421 4.00004 32.516 4.04938 32.3662 4.04938ZM32.3662 6.01749C32.22 6.01749 32.0939 5.96815 31.9879 5.86947C31.8856 5.76714 31.8344 5.63739 31.8344 5.48023C31.8344 5.32308 31.8856 5.19699 31.9879 5.10196C32.0939 5.00328 32.22 4.95394 32.3662 4.95394C32.516 4.95394 32.6421 5.00328 32.7445 5.10196C32.8468 5.19699 32.898 5.32308 32.898 5.48023C32.898 5.63739 32.8468 5.76714 32.7445 5.86947C32.6421 5.96815 32.516 6.01749 32.3662 6.01749Z" fill="#373435"/>
<path d="M33.2689 5.97363V5.398L34.7491 4.00004C34.8661 3.89405 34.952 3.79902 35.0068 3.71496C35.0616 3.6309 35.0982 3.55415 35.1164 3.48471C35.1384 3.41527 35.1493 3.35131 35.1493 3.29283C35.1493 3.13933 35.0963 3.02238 34.9903 2.94197C34.888 2.85791 34.7363 2.81588 34.5353 2.81588C34.3745 2.81588 34.2247 2.84695 34.0858 2.90908C33.9505 2.97121 33.8354 3.06806 33.7404 3.19964L33.0935 2.78299C33.2397 2.5637 33.4444 2.3901 33.7075 2.26218C33.9706 2.13426 34.274 2.0703 34.6175 2.0703C34.9026 2.0703 35.1511 2.11782 35.3631 2.21284C35.5788 2.30421 35.7451 2.43396 35.862 2.60208C35.9826 2.7702 36.0429 2.97121 36.0429 3.20512C36.0429 3.32938 36.0265 3.45365 35.9936 3.57791C35.9643 3.69852 35.9022 3.82644 35.8072 3.96166C35.7158 4.09689 35.5806 4.24857 35.4015 4.41669L34.1735 5.57343L34.0035 5.24998H36.169V5.97363H33.2689Z" fill="#373435"/>
<path d="M38.1144 6.03942C37.8001 6.03942 37.5187 5.96267 37.2702 5.80917C37.0217 5.65201 36.8261 5.42541 36.6836 5.12937C36.5411 4.83333 36.4698 4.47516 36.4698 4.05486C36.4698 3.63456 36.5411 3.27639 36.6836 2.98035C36.8261 2.68431 37.0217 2.45954 37.2702 2.30604C37.5187 2.14888 37.8001 2.0703 38.1144 2.0703C38.4324 2.0703 38.7138 2.14888 38.9587 2.30604C39.2072 2.45954 39.4028 2.68431 39.5453 2.98035C39.6878 3.27639 39.7591 3.63456 39.7591 4.05486C39.7591 4.47516 39.6878 4.83333 39.5453 5.12937C39.4028 5.42541 39.2072 5.65201 38.9587 5.80917C38.7138 5.96267 38.4324 6.03942 38.1144 6.03942ZM38.1144 5.28836C38.2643 5.28836 38.394 5.24633 38.5037 5.16227C38.617 5.07821 38.7047 4.94481 38.7668 4.76207C38.8326 4.57933 38.8655 4.34359 38.8655 4.05486C38.8655 3.76613 38.8326 3.5304 38.7668 3.34766C38.7047 3.16492 38.617 3.03152 38.5037 2.94746C38.394 2.86339 38.2643 2.82136 38.1144 2.82136C37.9683 2.82136 37.8385 2.86339 37.7252 2.94746C37.6156 3.03152 37.5279 3.16492 37.4621 3.34766C37.3999 3.5304 37.3689 3.76613 37.3689 4.05486C37.3689 4.34359 37.3999 4.57933 37.4621 4.76207C37.5279 4.94481 37.6156 5.07821 37.7252 5.16227C37.8385 5.24633 37.9683 5.28836 38.1144 5.28836Z" fill="#373435"/>
<path d="M40.7099 5.97363V2.46502L41.0936 2.84878H39.9424V2.13609H41.598V5.97363H40.7099Z" fill="#373435"/>
<path d="M44.0417 6.03942C43.6909 6.03942 43.3857 5.96632 43.1262 5.82013C42.8704 5.67394 42.673 5.46013 42.5341 5.17871C42.3952 4.89729 42.3258 4.55009 42.3258 4.13709C42.3258 3.69486 42.408 3.32025 42.5725 3.01324C42.7406 2.70624 42.9709 2.47233 43.2633 2.31152C43.5593 2.15071 43.8992 2.0703 44.283 2.0703C44.4876 2.0703 44.6832 2.09223 44.8695 2.13609C45.0559 2.17995 45.2168 2.24573 45.352 2.33345L45.0231 2.98583C44.9171 2.91274 44.8038 2.8634 44.6832 2.83781C44.5625 2.80857 44.4365 2.79395 44.3049 2.79395C43.9723 2.79395 43.7091 2.89446 43.5154 3.09548C43.3217 3.29649 43.2249 3.59436 43.2249 3.98907C43.2249 4.05486 43.2249 4.12796 43.2249 4.20836C43.2285 4.28877 43.2395 4.36917 43.2578 4.44958L43.0111 4.21933C43.0805 4.07679 43.1701 3.95801 43.2797 3.86298C43.3894 3.7643 43.5191 3.69121 43.6689 3.6437C43.8224 3.59253 43.9906 3.56694 44.1733 3.56694C44.4218 3.56694 44.6448 3.61628 44.8421 3.71496C45.0395 3.81364 45.1967 3.95253 45.3136 4.13161C45.4342 4.3107 45.4945 4.52085 45.4945 4.76207C45.4945 5.02156 45.4287 5.24815 45.2972 5.44186C45.1692 5.63191 44.9956 5.77993 44.7764 5.88592C44.5607 5.98825 44.3158 6.03942 44.0417 6.03942ZM43.9924 5.37607C44.1167 5.37607 44.2263 5.35414 44.3213 5.31029C44.42 5.26277 44.4968 5.19516 44.5516 5.10744C44.6064 5.01973 44.6338 4.91922 44.6338 4.80592C44.6338 4.63049 44.5735 4.49161 44.4529 4.38928C44.3359 4.28329 44.1788 4.23029 43.9814 4.23029C43.8499 4.23029 43.7347 4.25588 43.6361 4.30704C43.5374 4.35455 43.4588 4.42217 43.4003 4.50988C43.3455 4.59394 43.3181 4.69262 43.3181 4.80592C43.3181 4.91557 43.3455 5.01425 43.4003 5.10196C43.4551 5.18602 43.5319 5.25364 43.6306 5.3048C43.7293 5.35232 43.8499 5.37607 43.9924 5.37607Z" fill="#373435"/>
<path d="M9.55554 54.9994C9.2595 54.9994 8.98356 54.9519 8.72773 54.8568C8.47554 54.7582 8.25626 54.6193 8.06986 54.4402C7.88347 54.2611 7.73727 54.051 7.63128 53.8097C7.52895 53.5685 7.47778 53.3036 7.47778 53.0148C7.47778 52.7261 7.52895 52.4611 7.63128 52.2199C7.73727 51.9787 7.88347 51.7685 8.06986 51.5894C8.25991 51.4104 8.48103 51.2733 8.73321 51.1783C8.98539 51.0796 9.26133 51.0303 9.56102 51.0303C9.89361 51.0303 10.1933 51.0887 10.4601 51.2057C10.7306 51.319 10.9572 51.4871 11.1399 51.7101L10.5697 52.2363C10.4382 52.0865 10.292 51.975 10.1312 51.9019C9.97036 51.8252 9.79493 51.7868 9.60488 51.7868C9.42579 51.7868 9.26133 51.816 9.11148 51.8745C8.96163 51.933 8.83189 52.0171 8.72224 52.1267C8.6126 52.2363 8.52671 52.3661 8.46458 52.5159C8.4061 52.6658 8.37686 52.8321 8.37686 53.0148C8.37686 53.1976 8.4061 53.3639 8.46458 53.5137C8.52671 53.6635 8.6126 53.7933 8.72224 53.9029C8.83189 54.0126 8.96163 54.0966 9.11148 54.1551C9.26133 54.2136 9.42579 54.2428 9.60488 54.2428C9.79493 54.2428 9.97036 54.2063 10.1312 54.1332C10.292 54.0564 10.4382 53.9413 10.5697 53.7878L11.1399 54.3141C10.9572 54.537 10.7306 54.707 10.4601 54.8239C10.1933 54.9409 9.89178 54.9994 9.55554 54.9994Z" fill="#373435"/>
<path d="M11.751 54.9336V51.0961H12.4857L14.1194 53.8043H13.7301L15.3364 51.0961H16.0655L16.0765 54.9336H15.2432L15.2377 52.3734H15.3912L14.1084 54.5279H13.7082L12.3979 52.3734H12.5843V54.9336H11.751Z" fill="#373435"/>
<path d="M16.2991 55.4818L18.1082 50.3176H18.8702L17.0611 55.4818H16.2991Z" fill="#373435"/>
<path d="M19.143 54.9336V51.0961H20.0311V54.2099H21.9554V54.9336H19.143ZM24.377 54.9336L25.923 51.4359L26.1532 51.8197H24.0864L24.4811 51.4031V52.4447H23.6917V51.0961H26.7672V51.6717L25.3418 54.9336H24.377Z" fill="#373435"/>
<path d="M28.3063 54.9994C28.0395 54.9994 27.7745 54.9647 27.5114 54.8952C27.2482 54.8221 27.0253 54.7198 26.8425 54.5882L27.1879 53.9084C27.3341 54.0144 27.5041 54.0985 27.6978 54.1606C27.8915 54.2227 28.087 54.2538 28.2844 54.2538C28.5073 54.2538 28.6827 54.2099 28.8107 54.1222C28.9386 54.0345 29.0025 53.9139 29.0025 53.7604C29.0025 53.6142 28.9459 53.4991 28.8326 53.415C28.7193 53.331 28.5365 53.2889 28.2844 53.2889H27.8787V52.7023L28.9477 51.4908L29.0464 51.8087H27.0344V51.0961H29.7207V51.6717L28.6572 52.8832L28.2076 52.6256H28.4653C28.9367 52.6256 29.2931 52.7316 29.5343 52.9436C29.7755 53.1555 29.8961 53.4278 29.8961 53.7604C29.8961 53.976 29.8395 54.1789 29.7262 54.3689C29.6129 54.5553 29.4393 54.707 29.2054 54.8239C28.9715 54.9409 28.6718 54.9994 28.3063 54.9994Z" fill="#373435"/>
<path d="M31.6744 51.0303C32.0289 51.0303 32.3341 51.1034 32.59 51.2496C32.8458 51.3957 33.0432 51.6096 33.182 51.891C33.3209 52.1687 33.3904 52.5159 33.3904 52.9326C33.3904 53.3748 33.3063 53.7494 33.1382 54.0564C32.9737 54.3634 32.7453 54.5974 32.4529 54.7582C32.1605 54.919 31.8206 54.9994 31.4332 54.9994C31.2322 54.9994 31.0385 54.9775 30.8521 54.9336C30.6657 54.8897 30.5049 54.8239 30.3697 54.7362L30.6986 54.0839C30.8046 54.1569 30.9179 54.2081 31.0385 54.2374C31.1591 54.2629 31.2852 54.2757 31.4168 54.2757C31.7457 54.2757 32.007 54.1752 32.2007 53.9742C32.3981 53.7732 32.4968 53.4753 32.4968 53.0806C32.4968 53.0148 32.4949 52.9417 32.4913 52.8613C32.4876 52.7809 32.4785 52.7005 32.4639 52.6201L32.7051 52.8504C32.643 52.9929 32.5552 53.1135 32.4419 53.2122C32.3286 53.3072 32.1971 53.3803 32.0472 53.4315C31.8974 53.479 31.7292 53.5027 31.5429 53.5027C31.298 53.5027 31.075 53.4534 30.874 53.3547C30.6767 53.256 30.5177 53.1172 30.3971 52.9381C30.2801 52.759 30.2216 52.5488 30.2216 52.3076C30.2216 52.0445 30.2856 51.8179 30.4135 51.6278C30.5451 51.4378 30.7205 51.2916 30.9398 51.1892C31.1628 51.0833 31.4076 51.0303 31.6744 51.0303ZM31.7293 51.6936C31.6013 51.6936 31.4899 51.7174 31.3948 51.7649C31.2998 51.8087 31.2249 51.8745 31.1701 51.9622C31.1152 52.0463 31.0878 52.1468 31.0878 52.2638C31.0878 52.4392 31.1463 52.5799 31.2633 52.6859C31.3839 52.7882 31.5429 52.8394 31.7402 52.8394C31.8681 52.8394 31.9814 52.8156 32.0801 52.7681C32.1824 52.717 32.261 52.6475 32.3158 52.5598C32.3707 52.4721 32.3981 52.3734 32.3981 52.2638C32.3981 52.1541 32.3707 52.0573 32.3158 51.9732C32.2647 51.8855 32.1898 51.8179 32.0911 51.7704C31.9924 51.7192 31.8718 51.6936 31.7293 51.6936Z" fill="#373435"/>
<path d="M35.0866 54.9994C34.8198 54.9994 34.5548 54.9647 34.2916 54.8952C34.0322 54.8221 33.8092 54.7198 33.6228 54.5882L33.9737 53.9084C34.1199 54.0144 34.288 54.0985 34.478 54.1606C34.6717 54.2227 34.8673 54.2538 35.0646 54.2538C35.2876 54.2538 35.463 54.2099 35.5909 54.1222C35.7188 54.0345 35.7828 53.9121 35.7828 53.7549C35.7828 53.6562 35.7572 53.5685 35.7061 53.4918C35.6549 53.415 35.5635 53.3565 35.4319 53.3163C35.304 53.2761 35.1231 53.256 34.8892 53.256H33.9079L34.1052 51.0961H36.4462V51.8087H34.4232L34.8837 51.4031L34.7467 52.9436L34.2862 52.5379H35.0975C35.4776 52.5379 35.7828 52.5909 36.0131 52.6969C36.247 52.7992 36.4169 52.9399 36.5229 53.119C36.6289 53.2981 36.6819 53.5009 36.6819 53.7275C36.6819 53.9541 36.6252 54.1643 36.5119 54.358C36.3986 54.548 36.2232 54.7033 35.9856 54.8239C35.7517 54.9409 35.452 54.9994 35.0866 54.9994Z" fill="#373435"/>
<path d="M38.3505 54.9994C38.0837 54.9994 37.8188 54.9647 37.5556 54.8952C37.2961 54.8221 37.0732 54.7198 36.8868 54.5882L37.2377 53.9084C37.3838 54.0144 37.552 54.0985 37.742 54.1606C37.9357 54.2227 38.1313 54.2538 38.3286 54.2538C38.5516 54.2538 38.727 54.2099 38.8549 54.1222C38.9828 54.0345 39.0468 53.9121 39.0468 53.7549C39.0468 53.6562 39.0212 53.5685 38.97 53.4918C38.9189 53.415 38.8275 53.3565 38.6959 53.3163C38.568 53.2761 38.3871 53.256 38.1532 53.256H37.1719L37.3692 51.0961H39.7101V51.8087H37.6872L38.1477 51.4031L38.0106 52.9436L37.5501 52.5379H38.3615C38.7416 52.5379 39.0468 52.5909 39.277 52.6969C39.5109 52.7992 39.6809 52.9399 39.7869 53.119C39.8929 53.2981 39.9459 53.5009 39.9459 53.7275C39.9459 53.9541 39.8892 54.1643 39.7759 54.358C39.6626 54.548 39.4872 54.7033 39.2496 54.8239C39.0157 54.9409 38.716 54.9994 38.3505 54.9994Z" fill="#373435"/>
<path d="M41.8036 54.9994C41.482 54.9994 41.2006 54.9519 40.9594 54.8568C40.7182 54.7582 40.5299 54.6211 40.3947 54.4457C40.2595 54.2666 40.1919 54.0583 40.1919 53.8207C40.1919 53.5831 40.2577 53.3821 40.3892 53.2177C40.5245 53.0495 40.7127 52.9235 40.9539 52.8394C41.1951 52.7517 41.4784 52.7078 41.8036 52.7078C42.1326 52.7078 42.4177 52.7517 42.6589 52.8394C42.9037 52.9235 43.092 53.0495 43.2235 53.2177C43.3588 53.3821 43.4264 53.5831 43.4264 53.8207C43.4264 54.0583 43.3588 54.2666 43.2235 54.4457C43.0883 54.6211 42.8983 54.7582 42.6534 54.8568C42.4122 54.9519 42.1289 54.9994 41.8036 54.9994ZM41.8036 54.347C42.0266 54.347 42.202 54.2977 42.3299 54.199C42.4615 54.1003 42.5273 53.9651 42.5273 53.7933C42.5273 53.6215 42.4615 53.4881 42.3299 53.3931C42.202 53.2944 42.0266 53.2451 41.8036 53.2451C41.5844 53.2451 41.4108 53.2944 41.2828 53.3931C41.1549 53.4881 41.091 53.6215 41.091 53.7933C41.091 53.9651 41.1549 54.1003 41.2828 54.199C41.4108 54.2977 41.5844 54.347 41.8036 54.347ZM41.8036 53.1574C41.5076 53.1574 41.2481 53.1172 41.0252 53.0368C40.8059 52.9563 40.6341 52.8394 40.5098 52.6859C40.3892 52.5287 40.3289 52.3423 40.3289 52.1267C40.3289 51.9001 40.3911 51.7064 40.5153 51.5456C40.6396 51.3811 40.8132 51.255 41.0361 51.1673C41.2591 51.0759 41.5149 51.0303 41.8036 51.0303C42.0997 51.0303 42.3573 51.0759 42.5766 51.1673C42.7996 51.255 42.9732 51.3811 43.0974 51.5456C43.2254 51.7064 43.2893 51.9001 43.2893 52.1267C43.2893 52.3423 43.2272 52.5287 43.1029 52.6859C42.9823 52.8394 42.8105 52.9563 42.5876 53.0368C42.3647 53.1172 42.1033 53.1574 41.8036 53.1574ZM41.8036 52.6365C41.99 52.6365 42.1362 52.5945 42.2422 52.5105C42.3519 52.4264 42.4067 52.3113 42.4067 52.1651C42.4067 52.0116 42.35 51.8928 42.2367 51.8087C42.1271 51.7247 41.9827 51.6826 41.8036 51.6826C41.6282 51.6826 41.4857 51.7247 41.376 51.8087C41.2664 51.8928 41.2116 52.0116 41.2116 52.1651C41.2116 52.3113 41.2646 52.4264 41.3706 52.5105C41.4765 52.5945 41.6209 52.6365 41.8036 52.6365Z" fill="#373435"/>
<path d="M45.2104 51.0303C45.565 51.0303 45.8701 51.1034 46.126 51.2496C46.3818 51.3957 46.5792 51.6096 46.718 51.891C46.8569 52.1687 46.9264 52.5159 46.9264 52.9326C46.9264 53.3748 46.8423 53.7494 46.6742 54.0564C46.5097 54.3634 46.2813 54.5974 45.9889 54.7582C45.6965 54.919 45.3566 54.9994 44.9692 54.9994C44.7682 54.9994 44.5745 54.9775 44.3881 54.9336C44.2017 54.8897 44.0409 54.8239 43.9057 54.7362L44.2346 54.0839C44.3406 54.1569 44.4539 54.2081 44.5745 54.2374C44.6951 54.2629 44.8212 54.2757 44.9528 54.2757C45.2817 54.2757 45.543 54.1752 45.7367 53.9742C45.9341 53.7732 46.0328 53.4753 46.0328 53.0806C46.0328 53.0148 46.0309 52.9417 46.0273 52.8613C46.0236 52.7809 46.0145 52.7005 45.9999 52.6201L46.2411 52.8504C46.179 52.9929 46.0912 53.1135 45.9779 53.2122C45.8646 53.3072 45.7331 53.3803 45.5832 53.4315C45.4334 53.479 45.2653 53.5027 45.0789 53.5027C44.834 53.5027 44.6111 53.4534 44.41 53.3547C44.2127 53.256 44.0537 53.1172 43.9331 52.9381C43.8161 52.759 43.7577 52.5488 43.7577 52.3076C43.7577 52.0445 43.8216 51.8179 43.9495 51.6278C44.0811 51.4378 44.2565 51.2916 44.4758 51.1892C44.6988 51.0833 44.9436 51.0303 45.2104 51.0303ZM45.2653 51.6936C45.1373 51.6936 45.0259 51.7174 44.9308 51.7649C44.8358 51.8087 44.7609 51.8745 44.7061 51.9622C44.6513 52.0463 44.6238 52.1468 44.6238 52.2638C44.6238 52.4392 44.6823 52.5799 44.7993 52.6859C44.9199 52.7882 45.0789 52.8394 45.2762 52.8394C45.4041 52.8394 45.5174 52.8156 45.6161 52.7681C45.7185 52.717 45.797 52.6475 45.8519 52.5598C45.9067 52.4721 45.9341 52.3734 45.9341 52.2638C45.9341 52.1541 45.9067 52.0573 45.8519 51.9732C45.8007 51.8855 45.7258 51.8179 45.6271 51.7704C45.5284 51.7192 45.4078 51.6936 45.2653 51.6936Z" fill="#373435"/>
</svg>
