<svg width="46" height="55" viewBox="0 0 46 55" fill="none" xmlns="http://www.w3.org/2000/svg">
<path fill-rule="evenodd" clip-rule="evenodd" d="M35.848 22.9846C34.888 22.9846 34.024 22.7926 33.64 22.1206C33.064 21.1606 33.16 19.3366 33.16 18.1846C33.16 16.6486 33.16 15.3046 34.408 14.8246C35.56 14.3446 37.48 14.4406 38.056 15.6886C38.152 15.8806 38.152 16.1686 38.248 16.3606C38.248 16.6486 38.344 16.8406 38.344 17.1286C38.44 18.2806 38.344 18.5686 38.344 19.5286C38.344 20.2006 38.344 21.3526 38.056 21.8326C37.864 22.2166 37.672 22.5046 37.192 22.6966C36.904 22.8886 36.328 22.9846 35.848 22.9846ZM44.2 18.1846V19.2406C44.2 20.6806 43.816 22.0246 43.336 23.1766L42.76 24.1366C42.184 24.8086 41.704 25.3846 40.936 25.7686C40.456 26.0566 40.072 26.2486 39.496 26.3446C37.768 27.0166 37 27.0166 35.176 27.0166C33.544 27.0166 31.72 26.4406 30.472 25.6726C29.128 24.8086 28.36 23.8486 27.784 22.3126C27.4 21.4486 27.208 20.2006 27.208 18.9526C27.208 18.1846 27.208 17.6086 27.304 16.9366C27.4 16.6486 27.4 16.3606 27.496 16.0726C27.592 15.3046 28.072 14.4406 28.456 13.8646C28.552 13.5766 28.84 13.1926 29.128 12.9046C29.896 12.1366 30.28 11.8486 31.24 11.4646C33.832 10.3126 36.616 10.2166 39.304 11.0806L40.456 11.5606L41.704 12.3286C42.28 12.8086 42.952 13.5766 43.336 14.2486C43.624 15.1126 43.816 15.5926 44.008 16.5526C44.104 17.0326 44.2 17.6086 44.2 18.1846Z" fill="black"/>
<path fill-rule="evenodd" clip-rule="evenodd" d="M11.656 15.496C11.656 16.648 11.944 17.512 12.616 18.28C12.712 18.376 12.712 18.376 12.712 18.472C12.808 18.568 12.808 18.568 12.904 18.568C13.192 18.952 13.672 19.336 14.056 19.528C14.92 20.2 15.496 20.2 16.36 20.488C16.648 20.584 16.84 20.68 17.128 20.776C18.184 21.064 20.392 21.736 21.256 22.024C21.544 22.12 21.832 22.312 21.832 22.6C21.832 22.984 21.352 23.08 21.064 23.176C19.048 23.56 16.648 22.984 15.4 21.352C15.208 21.064 15.112 20.776 15.016 20.776H11.848V26.728H15.4V25.576C15.592 25.672 16.264 26.056 16.456 26.152C16.648 26.248 16.84 26.248 17.032 26.344C17.224 26.44 17.416 26.536 17.608 26.536C19.528 27.112 21.256 27.208 23.176 26.632C24.232 26.344 25.192 25.768 25.768 25L26.152 24.328C26.728 23.368 26.824 22.792 26.824 21.736C26.824 19.624 24.808 17.608 22.888 17.128C22.312 16.936 21.736 16.744 21.256 16.648L17.896 15.688C17.224 15.4 16.552 15.4 16.552 14.728C16.552 14.536 16.936 14.248 17.224 14.152C17.704 14.056 18.76 14.152 19.336 14.248C20.584 14.536 21.544 14.92 22.504 15.784C22.696 16.072 22.888 16.456 22.984 16.456H26.152C26.248 16.456 26.344 16.36 26.344 16.264V11.656C26.344 11.368 26.248 11.272 26.248 10.984H22.888V11.848C22.6 11.848 22.024 11.464 21.832 11.368C21.736 11.272 21.64 11.272 21.544 11.176C21.256 11.08 20.968 10.984 20.584 10.888C18.952 10.408 17.032 10.312 15.4 10.888C14.632 11.08 14.056 11.368 13.48 11.752C12.328 12.616 11.656 13.96 11.656 15.496Z" fill="black"/>
<path fill-rule="evenodd" clip-rule="evenodd" d="M0.712036 14.6323H3.11204C3.11204 15.2083 3.11204 16.0723 3.11204 16.6483C3.11204 17.4163 3.11204 22.5043 3.01604 22.7923H0.712036V26.6323C1.09604 26.7283 5.03204 26.6323 5.80004 26.6323C7.52804 26.6323 9.16004 26.6323 10.888 26.6323V22.7923C10.408 22.7923 8.87204 22.8883 8.58404 22.7923V14.6323H10.888V10.6963H0.712036V14.6323Z" fill="black"/>
<path fill-rule="evenodd" clip-rule="evenodd" d="M22.0241 34.3122C22.3121 34.3122 22.7921 34.4082 23.0801 34.4082C24.8081 34.6962 25.5761 35.3682 25.7681 35.4642V35.6562C25.4801 35.6562 24.7121 35.8482 24.2321 35.8482C22.4081 36.0402 20.7761 36.0402 18.9521 35.7522C18.7601 35.7522 18.3761 35.6562 18.1841 35.6562C18.1841 35.4642 18.0881 35.4642 18.4721 35.2722C18.9521 34.9842 19.2401 34.8882 19.8161 34.6962C20.1041 34.6002 20.4881 34.5042 20.8721 34.4082C21.1601 34.4082 21.6401 34.3122 22.0241 34.3122ZM21.9281 36.7122H21.7361C21.1601 36.7122 19.6241 36.6162 19.1441 36.5202C18.2801 36.3282 17.5121 36.2322 16.7441 35.9442C15.3041 35.5602 13.9601 34.8882 12.6161 34.1202C11.8481 33.7362 10.7921 32.8722 10.1201 32.2962L9.35206 31.6242C8.96806 31.2402 8.48806 30.8562 8.20006 30.4722C7.91206 29.9922 6.76006 28.7442 6.66406 28.3602C6.85606 28.3602 7.04806 28.3602 7.14406 28.3602C7.52806 28.3602 7.52806 28.3602 7.52806 28.4562C8.00806 29.1282 8.48806 29.7042 9.06406 30.3762C9.44806 30.8562 9.92806 31.2402 10.3121 31.6242C10.4081 31.7202 10.5041 31.7202 10.6001 31.8162C10.7921 32.0082 10.9841 32.2962 11.2721 32.2002L12.1361 31.6242C12.6161 31.4322 12.9041 31.3362 12.8081 31.1442L11.0801 28.6482C10.9841 28.5522 10.9841 28.5522 10.8881 28.3602C11.6561 28.1682 11.6561 28.4562 11.8481 28.6482C12.2321 29.2242 13.0961 30.4722 13.5761 30.8562C13.8641 30.7602 14.0561 30.6642 14.3441 30.5682L16.6481 29.7042C16.6481 29.6082 16.4561 29.2242 16.3601 29.0322C16.2641 28.8402 16.1681 28.5522 16.1681 28.3602H16.8401C17.0321 28.7442 17.2241 29.1282 17.4161 29.5122C17.6081 29.5122 17.8001 29.5122 17.8961 29.4162C18.0881 29.4162 18.2801 29.4162 18.4721 29.4162L20.4881 29.1282C21.7361 29.0322 21.6401 29.3202 21.6401 28.3602H22.3121C22.3121 28.5522 22.3121 28.5522 22.3121 28.7442V29.0322C22.8881 29.0322 26.0561 29.4162 26.5361 29.6082L27.1121 28.3602H27.7841C27.6881 28.7442 27.4001 29.3202 27.3041 29.7042H27.2081L27.3041 29.8002C27.4961 29.8002 28.6481 30.1842 28.8401 30.2802L30.2801 30.8562L30.6641 30.3762C30.7601 30.2802 30.7601 30.2802 30.7601 30.1842C31.3361 29.6082 31.7201 29.1282 32.2001 28.3602H32.9681C32.8721 28.5522 32.2001 29.6082 32.0081 29.8002L31.2401 30.8562C31.0481 30.9522 30.9521 30.9522 30.9521 31.2402L32.2001 31.9122C32.7761 32.2002 32.7761 32.2962 33.0641 32.0082C33.1601 31.9122 33.2561 31.8162 33.4481 31.7202L34.9841 30.1842C35.2721 29.8002 36.2321 28.6482 36.4241 28.3602H37.0961C37.0961 28.6482 36.1361 29.8002 35.9441 30.0882C35.4641 30.6642 34.9841 31.1442 34.5041 31.6242C33.8321 32.3922 32.8721 33.0642 32.1041 33.6402C29.4161 35.4642 26.5361 36.4242 23.2721 36.6162L21.9281 36.7122ZM11.8481 32.7762C11.8481 32.5842 12.4241 32.2962 12.6161 32.2002C13.8641 31.4322 13.3841 31.8162 14.4401 32.6802L14.9201 33.0642C15.0161 33.1602 15.2081 33.3522 15.4001 33.4482L16.4561 34.2162C16.5521 34.3122 17.4161 34.8882 17.5121 34.8882C17.5121 35.1762 17.2241 35.3682 16.9361 35.2722C16.7441 35.1762 16.3601 35.0802 16.0721 34.9842C14.7281 34.6002 13.3841 33.8322 12.1361 33.0642C12.0401 32.9682 11.8481 32.8722 11.8481 32.7762ZM26.3441 34.8882C26.5361 34.8882 28.2641 33.6402 28.4561 33.4482C28.8401 33.1602 29.2241 32.7762 29.4161 32.5842C29.6081 32.3922 30.2801 31.8162 30.3761 31.8162C30.6641 31.8162 31.3361 32.2002 31.7201 32.3922C31.8161 32.4882 31.9121 32.5842 32.1041 32.5842C32.1041 32.8722 31.9121 32.9682 31.5281 33.1602C30.8561 33.6402 30.1841 34.0242 29.4161 34.3122C29.1281 34.5042 28.9361 34.6002 28.6481 34.6962L27.0161 35.2722C26.8241 35.3682 26.8241 35.3682 26.6321 35.2722C26.4401 35.1762 26.3441 35.0802 26.3441 34.8882ZM24.6161 34.1202C24.6161 33.9282 24.9041 33.5442 25.1921 33.2562C25.3841 32.8722 25.5761 32.5842 25.7681 32.2962C25.9601 32.0082 26.1521 31.7202 26.3441 31.4322C26.5361 31.1442 26.7281 30.7602 26.8241 30.4722C27.6881 30.4722 29.2241 31.2402 29.6081 31.3362C29.6081 31.5282 29.4161 31.6242 29.2241 31.9122C28.7441 32.3922 27.9761 32.9682 27.4001 33.3522C26.9201 33.7362 26.3441 34.1202 25.7681 34.4082C25.3841 34.6002 25.2881 34.3122 24.6161 34.1202ZM14.2481 31.4322C14.4401 31.3362 14.6321 31.2402 14.9201 31.1442C15.3041 30.9522 16.6481 30.3762 17.0321 30.3762C17.1281 30.5682 17.2241 30.7602 17.3201 30.8562C17.4161 31.0482 17.5121 31.2402 17.6081 31.3362C17.8001 31.7202 17.9921 32.0082 18.1841 32.2962C18.3761 32.5842 18.5681 32.8722 18.7601 33.1602L19.2401 33.8322C19.2401 33.9282 19.3361 33.9282 19.3361 34.1202C19.0481 34.2162 18.3761 34.6002 18.1841 34.5042C17.9921 34.4082 16.5521 33.4482 16.2641 33.2562C16.0721 33.1602 16.0721 33.0642 15.8801 32.9682C15.6881 32.8722 15.4961 32.6802 15.3041 32.4882L14.2481 31.6242C14.2481 31.5282 14.2481 31.5282 14.2481 31.4322ZM17.8001 30.1842C19.1441 29.8962 20.1041 29.8002 21.6401 29.8002V33.6402L20.1041 33.8322C20.0081 33.7362 19.5281 33.1602 19.4321 32.9682C19.3361 32.8722 19.2401 32.6802 19.1441 32.5842C18.7601 32.1042 18.3761 31.3362 18.0881 30.7602C17.9921 30.5682 17.8001 30.3762 17.8001 30.1842ZM23.7521 33.8322C23.1761 33.8322 22.7921 33.6402 22.3121 33.6402V29.8002C23.3681 29.8002 24.3281 29.8962 25.2881 30.0882L26.1521 30.1842C26.0561 30.4722 25.7681 30.9522 25.6721 31.1442C25.4801 31.4322 24.0401 33.8322 23.7521 33.8322Z" fill="black"/>
<path fill-rule="evenodd" clip-rule="evenodd" d="M21.4481 7.52791C20.7761 7.71991 19.2401 7.43191 18.4721 7.33591C18.2801 7.23991 17.8961 7.14391 17.7041 7.14391C17.7041 6.75991 17.8961 6.56791 18.1841 6.08791C18.3761 5.79991 18.5681 5.51191 18.7601 5.22391L19.6241 3.97591C19.7201 3.87991 19.9121 3.59191 20.0081 3.49591C20.0081 3.59191 21.3521 3.68791 21.4481 3.68791L21.5441 5.79991C21.5441 6.37591 21.4481 6.85591 21.4481 7.52791ZM21.0641 0.711914H21.1601C23.5601 0.711914 24.7121 0.807914 27.0161 1.38391L28.6481 1.95991L30.0881 2.72791C30.4721 2.82391 30.7601 3.01591 31.0481 3.20791C31.4321 3.39991 31.7201 3.59191 32.0081 3.78391C32.7761 4.26391 33.7361 5.12791 34.4081 5.70391C34.8881 6.18391 35.4641 6.75991 35.8481 7.23991C36.1361 7.62391 36.8081 8.48791 37.0961 8.96791C36.8081 9.06391 36.6161 8.96791 36.2321 8.96791C35.8481 8.10391 34.6001 6.85591 33.9281 6.18391C33.7361 5.99191 33.5441 5.79991 33.2561 5.60791C32.9681 5.41591 32.7761 5.12791 32.4881 5.22391L32.1041 5.41591C32.0081 5.51191 31.8161 5.60791 31.7201 5.70391C31.4321 5.79991 31.1441 5.99191 30.9521 6.08791C30.9521 6.47191 31.2401 6.56791 31.4321 6.85591C31.5281 7.04791 31.5281 7.04791 31.7201 7.14391L32.8721 8.96791C32.5841 9.06391 32.3921 8.96791 32.1041 8.96791C31.9121 8.58391 30.7601 7.14391 30.4721 6.75991C30.3761 6.66391 30.2801 6.66391 30.1841 6.47191C29.9921 6.56791 29.7041 6.66391 29.4161 6.75991C29.1281 6.85591 28.9361 6.95191 28.7441 7.04791C28.4561 7.14391 27.4001 7.52791 27.2081 7.52791C27.1121 7.52791 27.0161 7.62391 27.1121 7.62391C27.2081 8.00791 27.4961 8.48791 27.6881 8.96791H26.9201C26.8241 8.77591 26.7281 8.58391 26.6321 8.39191C26.3441 7.71991 26.4401 7.81591 25.8641 7.91191C25.6721 7.91191 25.5761 7.91191 25.3841 8.00791C25.0961 8.00791 24.7121 8.10391 24.3281 8.10391L22.2161 8.29591V8.96791C22.1201 8.96791 21.6401 9.06391 21.5441 8.96791C21.4481 8.77591 21.6401 8.58391 21.4481 8.29591C20.6801 8.29591 17.8001 8.00791 17.3201 7.81591C17.2241 7.91191 16.7441 8.77591 16.7441 8.96791C16.5521 8.96791 16.4561 9.06391 16.3601 9.06391C16.1681 9.06391 16.1681 8.96791 15.9761 8.96791C15.9761 8.58391 16.4561 8.10391 16.5521 7.62391C16.2641 7.52791 15.9761 7.43191 15.7841 7.33591L13.4801 6.56791C13.3841 6.75991 13.3841 6.75991 13.1921 6.95191L12.3281 8.00791C11.4641 9.15991 11.8481 9.06391 10.8881 9.06391C11.0801 8.29591 12.8081 6.37591 12.8081 6.18391C12.3281 5.89591 11.7521 5.60791 11.1761 5.22391C11.0801 5.12791 11.0801 5.12791 10.9841 5.22391C10.8881 5.22391 9.83206 6.08791 9.73606 6.18391C9.06406 6.85591 9.06406 6.95191 8.48806 7.52791L7.91206 8.29591C7.81606 8.39191 7.72006 8.48791 7.62406 8.58391C7.52806 8.77591 7.43206 8.87191 7.43206 8.96791H6.66406C6.66406 8.87191 7.04806 8.29591 7.24006 8.10391C7.43206 7.81591 7.62406 7.52791 7.81606 7.23991C8.48806 6.56791 8.48806 6.56791 9.25606 5.79991C9.83206 5.22391 10.6001 4.55191 11.2721 4.07191C13.0001 2.91991 14.1521 2.24791 16.1681 1.57591C17.5121 1.19191 19.6241 0.711914 21.0641 0.711914ZM22.2161 5.60791V3.68791C22.6961 3.68791 23.1761 3.59191 23.6561 3.59191C23.7521 3.59191 25.2881 5.79991 25.4801 6.18391C25.5761 6.37591 25.9601 6.95191 25.9601 7.14391C25.6721 7.14391 24.1361 7.62391 22.2161 7.62391C22.2161 6.85591 22.2161 6.37591 22.2161 5.60791ZM16.9361 6.95191C16.5521 6.95191 14.1521 6.08791 14.1521 5.99191C14.1521 5.79991 14.3441 5.79991 14.5361 5.51191C15.1121 4.93591 16.4561 3.97591 17.1281 3.59191C18.6641 2.43991 18.1841 3.01591 19.1441 3.20791C19.1441 3.49591 19.2401 3.39991 19.1441 3.59191L18.0881 5.03191C17.8001 5.31991 17.7041 5.60791 17.5121 5.99191C17.4161 6.08791 17.0321 6.75991 16.9361 6.95191ZM24.4241 3.20791C24.8081 3.20791 25.1921 2.82391 25.5761 2.91991C25.6721 3.01591 25.7681 3.01591 25.9601 3.11191C26.4401 3.39991 27.6881 4.26391 28.1681 4.64791C28.2641 4.74391 28.3601 4.74391 28.4561 4.83991C28.5521 4.93591 28.6481 5.03191 28.7441 5.12791L29.3201 5.60791C29.4161 5.79991 29.5121 5.79991 29.5121 5.99191C29.3201 5.99191 27.4001 6.85591 26.7281 6.85591L25.5761 5.03191C25.2881 4.55191 24.9041 4.07191 24.5201 3.49591C24.4241 3.39991 24.4241 3.39991 24.4241 3.20791ZM13.3841 5.60791C13.0961 5.51191 12.3281 5.03191 11.9441 4.83991C11.5601 4.64791 11.7521 4.55191 12.3281 4.16791C12.5201 4.07191 12.8081 3.87991 13.0001 3.78391C13.9601 3.20791 15.0161 2.72791 15.9761 2.34391L16.6481 2.15191C16.9361 2.05591 17.1281 2.05591 17.4161 2.34391C17.4161 2.43991 17.4161 2.34391 17.4161 2.53591L15.3041 3.97591L13.3841 5.60791ZM26.2481 2.43991C26.2481 2.24791 26.3441 2.24791 26.4401 2.15191C26.6321 2.05591 26.6321 2.05591 26.9201 2.15191C27.2081 2.24791 27.4961 2.24791 27.6881 2.34391C28.7441 2.72791 29.7041 3.20791 30.6641 3.78391C30.7601 3.78391 31.9121 4.45591 31.9121 4.64791C31.9121 4.74391 31.3361 5.03191 31.1441 5.12791C29.8961 5.79991 30.4721 5.60791 29.6081 4.93591L28.8401 4.35991C27.9761 3.59191 27.6881 3.39991 26.7281 2.82391C26.6321 2.72791 26.3441 2.53591 26.2481 2.43991ZM17.9921 1.86391C18.1841 1.67191 18.5681 1.67191 18.8561 1.57591C20.7761 1.28791 22.7921 1.28791 24.7121 1.57591C24.9041 1.67191 25.4801 1.76791 25.5761 1.76791C25.5761 1.95991 25.5761 1.95991 25.2881 2.05591C23.3681 3.20791 20.6801 3.30391 18.6641 2.34391C18.4721 2.15191 18.1841 2.05591 17.9921 1.86391Z" fill="black"/>
<path fill-rule="evenodd" clip-rule="evenodd" d="M0.712036 26.6323C0.808036 26.7283 0.712036 26.7283 1.00004 26.7283H5.80004C7.52804 26.7283 9.25604 26.7283 10.888 26.7283V22.7923H8.58404V14.6323H10.888V10.6963H0.904036C0.712036 10.6963 0.808036 10.6963 0.712036 10.6963H10.888V14.6323H8.58404V22.7923C8.87204 22.8883 10.408 22.7923 10.888 22.7923V26.6323C9.16004 26.6323 7.52804 26.6323 5.80004 26.6323C5.03204 26.6323 1.09604 26.7283 0.712036 26.6323Z" fill="black"/>
<path fill-rule="evenodd" clip-rule="evenodd" d="M0.712036 22.7918H3.01604C3.11204 22.5038 3.11204 17.4158 3.11204 16.6478C3.11204 16.0718 3.11204 15.2078 3.11204 14.6318H0.712036C0.904036 14.7278 2.63204 14.6318 3.01604 14.6318V22.7918H0.808036C0.712036 22.7918 0.808036 22.7918 0.712036 22.7918Z" fill="black"/>
<path fill-rule="evenodd" clip-rule="evenodd" d="M27.112 7.62432C27.208 7.62432 27.208 7.62432 27.208 7.52832C27.112 7.52832 27.016 7.62432 27.112 7.62432Z" fill="black"/>
<path fill-rule="evenodd" clip-rule="evenodd" d="M27.304 29.8001C27.304 29.7041 27.304 29.7041 27.304 29.7041H27.208L27.304 29.8001Z" fill="black"/>
<path d="M4.80553 44.1737C5.36406 44.1737 5.84485 44.2889 6.24791 44.5192C6.65097 44.7495 6.9619 45.0864 7.1807 45.5297C7.3995 45.9673 7.50891 46.5143 7.50891 47.1707C7.50891 47.8675 7.37647 48.4577 7.11161 48.9413C6.8525 49.425 6.49262 49.7935 6.03198 50.0469C5.57134 50.3002 5.03585 50.4269 4.42551 50.4269C4.10882 50.4269 3.80364 50.3923 3.50999 50.3232C3.21633 50.2541 2.96298 50.1505 2.74993 50.0123L3.26815 48.9845C3.43513 49.0997 3.61363 49.1803 3.80364 49.2263C3.99366 49.2667 4.19231 49.2868 4.39959 49.2868C4.91781 49.2868 5.32951 49.1285 5.63468 48.8118C5.94561 48.4951 6.10108 48.0258 6.10108 47.4039C6.10108 47.3003 6.0982 47.1851 6.09244 47.0585C6.08668 46.9318 6.07229 46.8051 6.04926 46.6784L6.42928 47.0412C6.3314 47.2658 6.19321 47.4558 6.01471 47.6112C5.83621 47.7609 5.62892 47.8761 5.39285 47.9567C5.15677 48.0316 4.8919 48.069 4.59825 48.069C4.21246 48.069 3.86122 47.9913 3.54453 47.8358C3.2336 47.6803 2.98313 47.4615 2.79312 47.1794C2.60886 46.8972 2.51673 46.5662 2.51673 46.1861C2.51673 45.7716 2.6175 45.4146 2.81903 45.1151C3.02632 44.8157 3.3027 44.5854 3.64818 44.4242C3.99941 44.2572 4.3852 44.1737 4.80553 44.1737ZM4.8919 45.2188C4.69037 45.2188 4.51475 45.2562 4.36505 45.3311C4.21534 45.4002 4.0973 45.5038 4.01093 45.642C3.92456 45.7744 3.88138 45.9328 3.88138 46.117C3.88138 46.3934 3.9735 46.6151 4.15776 46.7821C4.34777 46.9433 4.59825 47.0239 4.90918 47.0239C5.11071 47.0239 5.2892 46.9865 5.44467 46.9116C5.60589 46.831 5.72969 46.7216 5.81606 46.5834C5.90243 46.4452 5.94561 46.2898 5.94561 46.117C5.94561 45.9443 5.90243 45.7917 5.81606 45.6593C5.73545 45.5211 5.61741 45.4146 5.46194 45.3397C5.30648 45.2591 5.11646 45.2188 4.8919 45.2188Z" fill="#373435"/>
<path d="M10.744 50.4269C10.2488 50.4269 9.80542 50.306 9.41388 50.0641C9.02234 49.8165 8.71429 49.4595 8.48972 48.9931C8.26516 48.5268 8.15288 47.9625 8.15288 47.3003C8.15288 46.6381 8.26516 46.0738 8.48972 45.6075C8.71429 45.1411 9.02234 44.7869 9.41388 44.5451C9.80542 44.2975 10.2488 44.1737 10.744 44.1737C11.2449 44.1737 11.6883 44.2975 12.0741 44.5451C12.4656 44.7869 12.7737 45.1411 12.9982 45.6075C13.2228 46.0738 13.3351 46.6381 13.3351 47.3003C13.3351 47.9625 13.2228 48.5268 12.9982 48.9931C12.7737 49.4595 12.4656 49.8165 12.0741 50.0641C11.6883 50.306 11.2449 50.4269 10.744 50.4269ZM10.744 49.2436C10.9801 49.2436 11.1845 49.1774 11.3572 49.045C11.5357 48.9125 11.6739 48.7024 11.7718 48.4145C11.8754 48.1266 11.9272 47.7552 11.9272 47.3003C11.9272 46.8454 11.8754 46.474 11.7718 46.1861C11.6739 45.8982 11.5357 45.6881 11.3572 45.5556C11.1845 45.4232 10.9801 45.357 10.744 45.357C10.5137 45.357 10.3092 45.4232 10.1307 45.5556C9.95801 45.6881 9.81982 45.8982 9.71617 46.1861C9.61829 46.474 9.56935 46.8454 9.56935 47.3003C9.56935 47.7552 9.61829 48.1266 9.71617 48.4145C9.81982 48.7024 9.95801 48.9125 10.1307 49.045C10.3092 49.1774 10.5137 49.2436 10.744 49.2436Z" fill="#373435"/>
<path d="M16.5999 50.4269C16.1047 50.4269 15.6614 50.306 15.2698 50.0641C14.8783 49.8165 14.5702 49.4595 14.3457 48.9931C14.1211 48.5268 14.0088 47.9625 14.0088 47.3003C14.0088 46.6381 14.1211 46.0738 14.3457 45.6075C14.5702 45.1411 14.8783 44.7869 15.2698 44.5451C15.6614 44.2975 16.1047 44.1737 16.5999 44.1737C17.1009 44.1737 17.5442 44.2975 17.93 44.5451C18.3216 44.7869 18.6296 45.1411 18.8542 45.6075C19.0787 46.0738 19.191 46.6381 19.191 47.3003C19.191 47.9625 19.0787 48.5268 18.8542 48.9931C18.6296 49.4595 18.3216 49.8165 17.93 50.0641C17.5442 50.306 17.1009 50.4269 16.5999 50.4269ZM16.5999 49.2436C16.836 49.2436 17.0404 49.1774 17.2132 49.045C17.3917 48.9125 17.5298 48.7024 17.6277 48.4145C17.7314 48.1266 17.7832 47.7552 17.7832 47.3003C17.7832 46.8454 17.7314 46.474 17.6277 46.1861C17.5298 45.8982 17.3917 45.6881 17.2132 45.5556C17.0404 45.4232 16.836 45.357 16.5999 45.357C16.3696 45.357 16.1652 45.4232 15.9867 45.5556C15.814 45.6881 15.6758 45.8982 15.5721 46.1861C15.4742 46.474 15.4253 46.8454 15.4253 47.3003C15.4253 47.7552 15.4742 48.1266 15.5721 48.4145C15.6758 48.7024 15.814 48.9125 15.9867 49.045C16.1652 49.1774 16.3696 49.2436 16.5999 49.2436Z" fill="#373435"/>
<path d="M20.7016 50.3232V44.7956L21.3062 45.4002H19.4925V44.2774H22.1008V50.3232H20.7016Z" fill="#373435"/>
<path d="M23.9234 47.2917C23.6931 47.2917 23.4945 47.2139 23.3275 47.0585C23.1663 46.8972 23.0856 46.6928 23.0856 46.4452C23.0856 46.1976 23.1663 45.999 23.3275 45.8493C23.4945 45.6938 23.6931 45.6161 23.9234 45.6161C24.1595 45.6161 24.3582 45.6938 24.5194 45.8493C24.6806 45.999 24.7612 46.1976 24.7612 46.4452C24.7612 46.6928 24.6806 46.8972 24.5194 47.0585C24.3582 47.2139 24.1595 47.2917 23.9234 47.2917ZM23.9234 50.3923C23.6931 50.3923 23.4945 50.3146 23.3275 50.1591C23.1663 49.9979 23.0856 49.7935 23.0856 49.5459C23.0856 49.2983 23.1663 49.0997 23.3275 48.95C23.4945 48.7945 23.6931 48.7168 23.9234 48.7168C24.1595 48.7168 24.3582 48.7945 24.5194 48.95C24.6806 49.0997 24.7612 49.2983 24.7612 49.5459C24.7612 49.7935 24.6806 49.9979 24.5194 50.1591C24.3582 50.3146 24.1595 50.3923 23.9234 50.3923Z" fill="#373435"/>
<path d="M25.3811 50.3232V49.4164L27.7131 47.2139C27.8973 47.0469 28.0326 46.8972 28.119 46.7648C28.2054 46.6324 28.263 46.5115 28.2918 46.4021C28.3263 46.2927 28.3436 46.1919 28.3436 46.0998C28.3436 45.8579 28.2601 45.6737 28.0931 45.547C27.9319 45.4146 27.6929 45.3483 27.3762 45.3483C27.1229 45.3483 26.8868 45.3973 26.668 45.4952C26.455 45.5931 26.2736 45.7456 26.1239 45.9529L25.1047 45.2965C25.335 44.951 25.6575 44.6775 26.072 44.476C26.4866 44.2745 26.9645 44.1737 27.5058 44.1737C27.9549 44.1737 28.3465 44.2486 28.6804 44.3983C29.0201 44.5422 29.2821 44.7466 29.4664 45.0115C29.6564 45.2764 29.7514 45.5931 29.7514 45.9616C29.7514 46.1573 29.7255 46.3531 29.6737 46.5489C29.6276 46.7389 29.5297 46.9404 29.38 47.1535C29.2361 47.3665 29.023 47.6055 28.7409 47.8703L26.8062 49.6927L26.5384 49.1832H29.9501V50.3232H25.3811Z" fill="#373435"/>
<path d="M33.0159 50.4269C32.5208 50.4269 32.0774 50.306 31.6859 50.0641C31.2943 49.8165 30.9863 49.4595 30.7617 48.9931C30.5371 48.5268 30.4249 47.9625 30.4249 47.3003C30.4249 46.6381 30.5371 46.0738 30.7617 45.6075C30.9863 45.1411 31.2943 44.7869 31.6859 44.5451C32.0774 44.2975 32.5208 44.1737 33.0159 44.1737C33.5169 44.1737 33.9603 44.2975 34.346 44.5451C34.7376 44.7869 35.0456 45.1411 35.2702 45.6075C35.4948 46.0738 35.607 46.6381 35.607 47.3003C35.607 47.9625 35.4948 48.5268 35.2702 48.9931C35.0456 49.4595 34.7376 49.8165 34.346 50.0641C33.9603 50.306 33.5169 50.4269 33.0159 50.4269ZM33.0159 49.2436C33.252 49.2436 33.4564 49.1774 33.6292 49.045C33.8077 48.9125 33.9459 48.7024 34.0437 48.4145C34.1474 48.1266 34.1992 47.7552 34.1992 47.3003C34.1992 46.8454 34.1474 46.474 34.0437 46.1861C33.9459 45.8982 33.8077 45.6881 33.6292 45.5556C33.4564 45.4232 33.252 45.357 33.0159 45.357C32.7856 45.357 32.5812 45.4232 32.4027 45.5556C32.23 45.6881 32.0918 45.8982 31.9881 46.1861C31.8903 46.474 31.8413 46.8454 31.8413 47.3003C31.8413 47.7552 31.8903 48.1266 31.9881 48.4145C32.0918 48.7024 32.23 48.9125 32.4027 49.045C32.5812 49.1774 32.7856 49.2436 33.0159 49.2436Z" fill="#373435"/>
<path d="M37.2137 50.3232V44.7956L37.8183 45.4002H36.0045V44.2774H38.6129V50.3232H37.2137Z" fill="#373435"/>
<path d="M41.6965 50.4269C41.2761 50.4269 40.8587 50.3722 40.4441 50.2628C40.0353 50.1476 39.684 49.9864 39.3904 49.7791L39.9432 48.7081C40.1735 48.8751 40.4383 49.0075 40.7378 49.1054C41.0429 49.2033 41.351 49.2523 41.6619 49.2523C42.0131 49.2523 42.2895 49.1832 42.4911 49.045C42.6926 48.9068 42.7934 48.7139 42.7934 48.4663C42.7934 48.3108 42.753 48.1726 42.6724 48.0517C42.5918 47.9308 42.4479 47.8387 42.2406 47.7753C42.0391 47.712 41.754 47.6803 41.3855 47.6803H39.8395L40.1504 44.2774H43.8384V45.4002H40.6514L41.3769 44.761L41.161 47.188L40.4355 46.5489H41.7137C42.3126 46.5489 42.7934 46.6324 43.1561 46.7994C43.5246 46.9606 43.7924 47.1823 43.9593 47.4644C44.1263 47.7465 44.2098 48.0661 44.2098 48.4231C44.2098 48.7801 44.1206 49.1112 43.9421 49.4164C43.7636 49.7158 43.4872 49.9605 43.1129 50.1505C42.7444 50.3348 42.2723 50.4269 41.6965 50.4269Z" fill="#373435"/>
<path d="M3.96003 53.2077C3.76367 53.2077 3.58065 53.1762 3.41095 53.1132C3.24368 53.0477 3.09823 52.9556 2.9746 52.8368C2.85096 52.718 2.754 52.5786 2.68369 52.4186C2.61582 52.2586 2.58188 52.0829 2.58188 51.8914C2.58188 51.6999 2.61582 51.5241 2.68369 51.3641C2.754 51.2041 2.85096 51.0647 2.9746 50.9459C3.10066 50.8271 3.24732 50.7362 3.41459 50.6732C3.58186 50.6078 3.76488 50.575 3.96367 50.575C4.18427 50.575 4.38305 50.6138 4.56002 50.6914C4.73941 50.7665 4.88971 50.878 5.01092 51.0259L4.63275 51.375C4.54547 51.2756 4.44851 51.2017 4.34184 51.1532C4.23518 51.1023 4.11882 51.0768 3.99276 51.0768C3.87397 51.0768 3.76488 51.0962 3.66549 51.135C3.5661 51.1738 3.48004 51.2296 3.40732 51.3023C3.33459 51.375 3.27762 51.4611 3.23641 51.5605C3.19762 51.6599 3.17823 51.7702 3.17823 51.8914C3.17823 52.0126 3.19762 52.1229 3.23641 52.2223C3.27762 52.3217 3.33459 52.4077 3.40732 52.4804C3.48004 52.5532 3.5661 52.6089 3.66549 52.6477C3.76488 52.6865 3.87397 52.7059 3.99276 52.7059C4.11882 52.7059 4.23518 52.6816 4.34184 52.6332C4.44851 52.5823 4.54547 52.5059 4.63275 52.4041L5.01092 52.7532C4.88971 52.901 4.73941 53.0138 4.56002 53.0913C4.38305 53.1689 4.18306 53.2077 3.96003 53.2077Z" fill="#373435"/>
<path d="M5.97167 51.6441H7.1971V52.1023H5.97167V51.6441ZM6.01531 52.6913H7.40073V53.1641H5.42986V50.6187H7.35346V51.0914H6.01531V52.6913Z" fill="#373435"/>
<path d="M7.82983 53.1641V50.6187H8.93162C9.1595 50.6187 9.35586 50.6562 9.5207 50.7314C9.68555 50.8041 9.81282 50.9096 9.90251 51.0477C9.99221 51.1859 10.0371 51.3508 10.0371 51.5423C10.0371 51.7314 9.99221 51.895 9.90251 52.0332C9.81282 52.1689 9.68555 52.2732 9.5207 52.3459C9.35586 52.4186 9.1595 52.455 8.93162 52.455H8.15709L8.41891 52.1968V53.1641H7.82983ZM9.44798 53.1641L8.81162 52.2404H9.4407L10.0843 53.1641H9.44798ZM8.41891 52.2623L8.15709 51.9859H8.8989C9.08071 51.9859 9.21646 51.9471 9.30616 51.8695C9.39586 51.7895 9.4407 51.6805 9.4407 51.5423C9.4407 51.4017 9.39586 51.2926 9.30616 51.215C9.21646 51.1374 9.08071 51.0987 8.8989 51.0987H8.15709L8.41891 50.8187V52.2623Z" fill="#373435"/>
<path d="M10.9491 53.1641V51.0987H10.1345V50.6187H12.3527V51.0987H11.5381V53.1641H10.9491Z" fill="#373435"/>
<path d="M12.7258 53.1641V50.6187H13.3149V53.1641H12.7258Z" fill="#373435"/>
<path d="M14.4233 51.7641H15.6451V52.2368H14.4233V51.7641ZM14.4669 53.1641H13.8779V50.6187H15.8015V51.0914H14.4669V53.1641Z" fill="#373435"/>
<path d="M16.1818 53.1641V50.6187H16.7709V53.1641H16.1818Z" fill="#373435"/>
<path d="M17.8756 51.6441H19.101V52.1023H17.8756V51.6441ZM17.9192 52.6913H19.3047V53.1641H17.3338V50.6187H19.2574V51.0914H17.9192V52.6913Z" fill="#373435"/>
<path d="M19.8298 53.1641V50.6187H20.9862C21.2625 50.6187 21.5062 50.672 21.7171 50.7787C21.928 50.8829 22.0928 51.0296 22.2116 51.2186C22.3304 51.4077 22.3898 51.632 22.3898 51.8914C22.3898 52.1483 22.3304 52.3726 22.2116 52.5641C22.0928 52.7532 21.928 52.901 21.7171 53.0077C21.5062 53.1119 21.2625 53.1641 20.9862 53.1641H19.8298ZM20.4189 52.6804H20.9571C21.1268 52.6804 21.2734 52.6489 21.3971 52.5859C21.5231 52.5204 21.6201 52.4283 21.688 52.3095C21.7583 52.1907 21.7934 52.0514 21.7934 51.8914C21.7934 51.7289 21.7583 51.5895 21.688 51.4732C21.6201 51.3544 21.5231 51.2635 21.3971 51.2005C21.2734 51.135 21.1268 51.1023 20.9571 51.1023H20.4189V52.6804ZM25.082 53.2077C24.8856 53.2077 24.7026 53.1762 24.5329 53.1132C24.3656 53.0477 24.2202 52.9556 24.0966 52.8368C23.9729 52.718 23.876 52.5786 23.8057 52.4186C23.7378 52.2586 23.7038 52.0829 23.7038 51.8914C23.7038 51.6999 23.7378 51.5241 23.8057 51.3641C23.876 51.2041 23.9729 51.0647 24.0966 50.9459C24.2226 50.8271 24.3693 50.7362 24.5365 50.6732C24.7038 50.6078 24.8868 50.575 25.0856 50.575C25.3062 50.575 25.505 50.6138 25.682 50.6914C25.8614 50.7665 26.0117 50.878 26.1329 51.0259L25.7547 51.375C25.6674 51.2756 25.5705 51.2017 25.4638 51.1532C25.3571 51.1023 25.2408 51.0768 25.1147 51.0768C24.9959 51.0768 24.8868 51.0962 24.7875 51.135C24.6881 51.1738 24.602 51.2296 24.5293 51.3023C24.4565 51.375 24.3996 51.4611 24.3584 51.5605C24.3196 51.6599 24.3002 51.7702 24.3002 51.8914C24.3002 52.0126 24.3196 52.1229 24.3584 52.2223C24.3996 52.3217 24.4565 52.4077 24.5293 52.4804C24.602 52.5532 24.6881 52.6089 24.7875 52.6477C24.8868 52.6865 24.9959 52.7059 25.1147 52.7059C25.2408 52.7059 25.3571 52.6816 25.4638 52.6332C25.5705 52.5823 25.6674 52.5059 25.7547 52.4041L26.1329 52.7532C26.0117 52.901 25.8614 53.0138 25.682 53.0913C25.505 53.1689 25.305 53.2077 25.082 53.2077Z" fill="#373435"/>
<path d="M27.6902 53.2077C27.489 53.2077 27.3023 53.175 27.1302 53.1095C26.9605 53.0441 26.8126 52.9519 26.6866 52.8332C26.5629 52.7144 26.466 52.575 26.3957 52.415C26.3278 52.255 26.2939 52.0804 26.2939 51.8914C26.2939 51.7023 26.3278 51.5277 26.3957 51.3677C26.466 51.2077 26.5642 51.0683 26.6902 50.9496C26.8163 50.8308 26.9641 50.7387 27.1338 50.6732C27.3035 50.6078 27.4878 50.575 27.6866 50.575C27.8878 50.575 28.072 50.6078 28.2393 50.6732C28.409 50.7387 28.5556 50.8308 28.6793 50.9496C28.8053 51.0683 28.9035 51.2077 28.9738 51.3677C29.0441 51.5253 29.0793 51.6999 29.0793 51.8914C29.0793 52.0804 29.0441 52.2562 28.9738 52.4186C28.9035 52.5786 28.8053 52.718 28.6793 52.8368C28.5556 52.9532 28.409 53.0441 28.2393 53.1095C28.072 53.175 27.889 53.2077 27.6902 53.2077ZM27.6866 52.7059C27.8005 52.7059 27.9047 52.6865 27.9993 52.6477C28.0962 52.6089 28.1811 52.5532 28.2538 52.4804C28.3265 52.4077 28.3823 52.3217 28.4211 52.2223C28.4623 52.1229 28.4829 52.0126 28.4829 51.8914C28.4829 51.7702 28.4623 51.6599 28.4211 51.5605C28.3823 51.4611 28.3265 51.375 28.2538 51.3023C28.1835 51.2296 28.0999 51.1738 28.0029 51.135C27.9059 51.0962 27.8005 51.0768 27.6866 51.0768C27.5726 51.0768 27.4672 51.0962 27.3702 51.135C27.2757 51.1738 27.192 51.2296 27.1193 51.3023C27.0466 51.375 26.9896 51.4611 26.9484 51.5605C26.9096 51.6599 26.8902 51.7702 26.8902 51.8914C26.8902 52.0101 26.9096 52.1204 26.9484 52.2223C26.9896 52.3217 27.0454 52.4077 27.1157 52.4804C27.1884 52.5532 27.2732 52.6089 27.3702 52.6477C27.4672 52.6865 27.5726 52.7059 27.6866 52.7059Z" fill="#373435"/>
<path d="M29.5258 53.1641V50.6187H30.0131L31.0967 52.415H30.8385L31.9039 50.6187H32.3876L32.3948 53.1641H31.8421L31.8385 51.4659H31.9403L31.0894 52.895H30.824L29.9549 51.4659H30.0785V53.1641H29.5258Z" fill="#373435"/>
<path d="M32.9819 53.1641V50.6187H34.0837C34.3115 50.6187 34.5079 50.6562 34.6727 50.7314C34.8376 50.8041 34.9649 50.9096 35.0545 51.0477C35.1442 51.1859 35.1891 51.3508 35.1891 51.5423C35.1891 51.7314 35.1442 51.895 35.0545 52.0332C34.9649 52.1714 34.8376 52.278 34.6727 52.3532C34.5079 52.4259 34.3115 52.4623 34.0837 52.4623H33.3091L33.5709 52.1968V53.1641H32.9819ZM33.5709 52.2623L33.3091 51.9823H34.0509C34.2327 51.9823 34.3685 51.9435 34.4582 51.8659C34.5479 51.7883 34.5927 51.6805 34.5927 51.5423C34.5927 51.4017 34.5479 51.2926 34.4582 51.215C34.3685 51.1374 34.2327 51.0987 34.0509 51.0987H33.3091L33.5709 50.8187V52.2623Z" fill="#373435"/>
<path d="M35.1433 53.1641L36.2778 50.6187H36.8596L37.9978 53.1641H37.3796L36.4487 50.9168H36.6814L35.7469 53.1641H35.1433ZM35.7106 52.6186L35.8669 52.1714H37.176L37.336 52.6186H35.7106Z" fill="#373435"/>
<path d="M38.2618 53.1641V50.6187H38.7491L40.2509 52.4514H40.0145V50.6187H40.5963V53.1641H40.1127L38.6073 51.3314H38.8436V53.1641H38.2618Z" fill="#373435"/>
<path d="M41.7746 53.1641V52.1241L41.9091 52.4804L40.7891 50.6187H41.4146L42.2727 52.0477H41.9127L42.7745 50.6187H43.3527L42.2327 52.4804L42.3636 52.1241V53.1641H41.7746Z" fill="#373435"/>
</svg>
